/* XPM */
static char *e214aded060046e68f3f2a12110f0b6dEdz5uEwxDukeidCl[] = {
/* columns rows colors chars-per-pixel */
"64 64 231 2 ",
"   c #572407",
".  c #68391B",
"X  c #663724",
"o  c #7A441E",
"O  c #6D482C",
"+  c #724528",
"@  c #665838",
"#  c #795A35",
"$  c #776E4B",
"%  c #90532F",
"&  c #A24B2C",
"*  c #B85226",
"=  c #BC542C",
"-  c #A75135",
";  c #B55739",
":  c #887435",
">  c #C75928",
",  c #CB5C2E",
"<  c #C35B33",
"1  c #C65B3A",
"2  c #D35D34",
"3  c #CD632E",
"4  c #C76636",
"5  c #CC6231",
"6  c #CC643B",
"7  c #D26434",
"8  c #D56836",
"9  c #D4633A",
"0  c #CB713F",
"q  c #A45944",
"w  c #B45E43",
"e  c #856947",
"r  c #84794B",
"t  c #AD6A4A",
"y  c #B46C4E",
"u  c #BA6948",
"i  c #B97659",
"p  c #B97A66",
"a  c #CA6545",
"s  c #D06B46",
"d  c #CC754A",
"f  c #D4764C",
"g  c #C67657",
"h  c #D67D58",
"j  c #D27B5C",
"k  c #CC7768",
"l  c #D7756C",
"z  c #D97C75",
"x  c #E57669",
"c  c #E27D72",
"v  c #688B0A",
"b  c #6B8E0E",
"n  c #779C0B",
"m  c #799E12",
"M  c #759818",
"N  c #7EA40E",
"B  c #7EA312",
"V  c #83AB0E",
"C  c #87B10C",
"Z  c #89B30D",
"A  c #84AB13",
"S  c #83A914",
"D  c #89AD15",
"F  c #90A81D",
"G  c #87B310",
"H  c #8BB312",
"J  c #8DB916",
"K  c #8DB41A",
"L  c #8EBA19",
"P  c #91B715",
"I  c #91B61D",
"U  c #91BD1A",
"Y  c #958A28",
"T  c #839827",
"R  c #93AE23",
"E  c #93B722",
"W  c #94B924",
"Q  c #93B42A",
"!  c #99B629",
"~  c #96BA2A",
"^  c #9ABA2D",
"/  c #9BBB33",
"(  c #9BB936",
")  c #A7B52B",
"_  c #D09F19",
"`  c #E1991C",
"'  c #DCA01F",
"]  c #F2992A",
"[  c #D2AA2E",
"{  c #94C11E",
"}  c #96C323",
"|  c #98C623",
" . c #9CCA25",
".. c #9DC13B",
"X. c #9F9250",
"o. c #BB9154",
"O. c #99AA4A",
"+. c #A4BA43",
"@. c #A8BC47",
"#. c #BAA452",
"$. c #A8BB5A",
"%. c #B2B759",
"&. c #8B9365",
"*. c #B4916D",
"=. c #B69979",
"-. c #9CAB6F",
";. c #AEA76E",
":. c #A5BA6B",
">. c #BCBD6B",
",. c #B6BC77",
"<. c #CC865F",
"1. c #D6855C",
"2. c #ECAB45",
"3. c #F4B055",
"4. c #CD8469",
"5. c #D88467",
"6. c #D39365",
"7. c #C98A78",
"8. c #D9867C",
"9. c #D8967F",
"0. c #E4826C",
"q. c #E08C68",
"w. c #E09667",
"e. c #EB8374",
"r. c #E98879",
"t. c #F78677",
"y. c #F68679",
"u. c #E29478",
"i. c #D3A47B",
"p. c #C1B37A",
"a. c #F9B770",
"s. c #A4C647",
"d. c #A9C34C",
"f. c #ACC553",
"g. c #A8C454",
"h. c #B2C65A",
"j. c #A9C769",
"k. c #B5C968",
"l. c #B9CA6C",
"z. c #B6D168",
"x. c #AAC675",
"c. c #BBC876",
"v. c #BCD477",
"b. c #C1CB74",
"n. c #D8CE7B",
"m. c #C2D478",
"M. c #B4AD8F",
"N. c #DB8B87",
"B. c #CA908E",
"V. c #C7998C",
"C. c #D59B88",
"Z. c #DB9888",
"A. c #D88C94",
"S. c #DD9393",
"D. c #DB9996",
"F. c #DC949C",
"G. c #EC8D87",
"H. c #E68B8C",
"J. c #FC8E83",
"K. c #E89689",
"L. c #FA9585",
"P. c #FF9C8D",
"I. c #E58D97",
"U. c #E99699",
"Y. c #FF9D94",
"T. c #C8A689",
"R. c #D8A78A",
"E. c #CABB83",
"W. c #DEBE89",
"Q. c #C7AC9F",
"!. c #D7A999",
"~. c #CCB79C",
"^. c #D5BA94",
"/. c #E5A18F",
"(. c #ECA78E",
"). c #F0B688",
"_. c #FAB788",
"`. c #E5A897",
"'. c #FFA29A",
"]. c #FFA698",
"[. c #E6B69A",
"{. c #F2BA97",
"}. c #E596A3",
"|. c #E39CA2",
" X c #F094A5",
".X c #D8B3A7",
"XX c #D7ACB0",
"oX c #E7AAAA",
"OX c #F9AAA3",
"+X c #EABAA7",
"@X c #F5B9A5",
"#X c #FDB1AA",
"$X c #E5BAB3",
"%X c #F5B1B4",
"&X c #BAC985",
"*X c #BDD795",
"=X c #C8CC8B",
"-X c #DBCB89",
";X c #C7D589",
":X c #CBD48B",
">X c #DAC799",
",X c #C7DB95",
"<X c #D6D599",
"1X c #E2C193",
"2X c #F7CA97",
"3X c #D7C4A6",
"4X c #DBD7A5",
"5X c #D9DAA3",
"6X c #DFCAB6",
"7X c #EBC7AA",
"8X c #F6C2AD",
"9X c #E3D6A5",
"0X c #FFD7A2",
"qX c #E9C6B4",
"wX c #F4C6B4",
"eX c #FCCABC",
"rX c #E7D7B7",
"tX c #F0DBB5",
"yX c #D1E6AC",
"uX c #FFE0A6",
"iX c #E7E5BB",
"pX c #FFCCC5",
"aX c #F9D9C7",
"sX c #FCDCD3",
"dX c #DDEBC2",
"fX c #E9E9C8",
"gX c #E8EBD4",
"hX c #FFE4D4",
"jX c #F8F3DE",
"kX c #FBF5E5",
"lX c #FEF9FC",
/* pixels */
"H H H H H H H H H H H V H H H H H H H H H H H H H H H H H H H H H H H H H H H H U H H H H H ;XiXE H H H H H H H H H H H H H H H ",
"H H H H H H H H H H H H H H H H H H H H H H H H Z M H H H H H H H H H H H H H H H H H H H H J J H H H H H H H H H H H H H H H H ",
"H H H H H H H H H H H H H H H H H H H H H H J J H H H H H H H H H H H H H H H H H H H H H H H H H J H H H H H H H H H H H H H H ",
"H H H H H H H H H H H H H H H H H H H H H H H H H H H H H H H H H H H J H H H H H H H H H H H H H H L H H H H H H H H H H H H H ",
"H H H H H H | H H H H H H H H H H H H H H H H H H H H H H H H H H H Z m H H H H H H H H H H H H H H H H H H H H H H H H H H H H ",
"H H H H H H U H H H H H H H H H H H H H H H H H H H H H H H H H H H H H B H H H J J H H H H H H H H H H H H H H H H H H H H H H ",
"H H H H H H H H H H H H H H H H H H H H H H H H H H H H H | ^ ! H H H H M H H H H J H H H H H H H H H H H U H H H H H H H H H H ",
"H H H H H H H H H H H H H H H H H U H H H H H J H E W J W E.V.T.l.H f./ I H H H H H H H H H H H H H H H H J H H H H H H H H H H ",
"H H H H H H U H H H H H H H H H P J H H H H H J d.p.T.b.m.Q.F.F.=X;X^.T.l.E H H H H H H H H H H H H H H H H H H H H J H H H H H ",
"H H H H H H | H H ^ I H J L H D Z H H H H H H H >.V.}.oX<X$XA.U.5X>XA.F.~.s.H H H H H H H H H H H H H H H H H H H H H H H H H H ",
"H H H H H H H H H k.n.gXH H H H H H H H H I l.v.;X.XS.U.>X[.U.OX<X!.F.|.4Xh.:Xf.H H H H H { J H H H H H H H H H H H H H H H H H ",
"H H J @.H H H H C kX2XK H H H H H H H H H c.T.!.<X<XU.H.#X@Xz '.[.S.S.wX5X3XXX3Xf.H { U H G H H H H H H H H H H H H H H H H H H ",
"H H H gX..H H H H z.,XU H H H H H H H H H &XA. X|.8XrXN.G.#Xc '.Y.8.eX9XD.F.F.XX2XP H H H H H H H H H H H H H H J H H H H H H H ",
"H H H H H H H H H H H H H H H H H | H H H <XoXI.A.D.#X#Xl P.e.Y.x Y.{.B.S.U.F.eX3.H H H H H H H H H H H H H H H J J H H H H H H ",
"H H H H H H H H H H H H H H H H H J H H H H k.wXoXD.k L.L.r.0.0.y.Y.l 8.@X7X4XL J H H H H H H H H H M V H H H H H H H H H H H H ",
"H H H H H H H H H H H H H H H H H H H H :X6XsXsXsXpX'.e.e.j u.5.e.c J.@X-X<X7XqXfXH H m V H H H H H S H H H H H H H H U H H H H ",
"J H H H H H H N H M H H H H H H H H H ~ qX}.I.U.U.G.J.P.h _.0X2Xj y.P.e.r.N.H.U.$X4XH H H H H H H H H H H H H H U H U J H H H H ",
"J H H H H H H S H S H H J J H H H H H d.$X}.I.H.8.r.y.t.h _.uX0X5.y.x c K.K.U.I.oXrXH H H H H H H H | H H H H H J H H H H H H J ",
"H H H H H H H H J H H H U H H H H H H { =X3X$XpXeXeX].L.0.5.).5.x t.].{.=.;.E.^.rXH H H H H H H H H H H H H H H H L H H H H H H ",
"H H H H H H H H H H H H } H H H H H H { H H =XaXeX`.k r.P.5.5.0.J.t.k 9.=.=.iXH H H H H H H H H H H H J H H H H H { H H H H H H ",
"H H H H H H H H H H H H H H H H H H H H H l.+XU.U.7.`.@X8.].e.Y.x L.R.C.H.U.%XrXH H H U H H H H H H H { H H H H H H H H H H H H ",
"H H H H H H H H H H H H H H H H D H H H H ,.F.F.A.7X5XD.8.(.c '.G.4.W.9XU.U.A.XXiXH *XU H H H H H H H J H H H H H H H H H H H H ",
"H H H H H H H H H H H H H H H H H H H H H l.~..X<X:Xi.H./.1X8.K.@XC.7.>X4Xp..XrXyX*X,X/ H H H H H H H H H H H H H H H n M H H H ",
"H H H H H H H H H H H H H H H H H H H H H H m.d.d.%.I #.1XW.#./.+XR.Z.C.<X;Xc.=Xx.x.v.H H H b n H H H H H H H H H H H H H H H H ",
"H H H U H H H H H H H H H H H H H H H { H H H H +.H S.C.tX+.Z./.>X3XU.Z.%.b.h.+.@.g./ H H H H H H H H H H H H H H H H H H H H H ",
"H H H U m H H H H H H H H H H H H H H H H H H H J H H V.M.@.Z./.~.c.! #.@.$.c.d.f./ H H H H H { U H H H H H H H H H H H H H H H ",
"H H H H S J H H H U H H H H H H H H H H H H H H H K I d.M.,.`.H ,.k./ ! ( +.>.h.%.W J H H H H H H H H H H H H H H H H H H H H H ",
"H H H H H H H H H J H H H H H H H H H H H H H H L U H K &XQ H T c.s.E E qXwXwXE.@.( E H H H H H H H H H H H H H H H H H H H H H ",
"H H H H H H H H H H H H H H H H H D H H H H H H H H H K :.k.z.g.j.s.E K wX+XOX%X( J H H H H H H H H H H J H H H H H H H | H H H ",
"H H H H H H H H H H H H H H H H H S D H H H H H H H H H K H g.../ ~ H K wX[.(.#XJ H H J H H H H H H H H m M H H H H H H U H H H ",
"H H H H H H H H ` 2.) H H H H H J H H H H H H H H V H H H H E s.( K K J 7X[.[.+XH H H H H H H H H H H H H H H H H H H H H H H H ",
"H H H H H H H H 2.] H H H H H H J H H H H H H H H H H H H H J I W / J H K ).>XH H H H H H H H H H H H H H H H H H H H H H H H H ",
"H H H H H H H H { H H H H H H H H H H H H H H H H H H H H H H J E ~ I E K ;XH H H H H U J H H H H H H J H H H H | H H H H H H H ",
"H H H H H H H H H H H H H H H H V H H H H H H H H H H H H H H H K K ~ E Q ~ K H H } H H H H H H H H H U H H H H J H H H H H H H ",
"H H H Z H H H H H H H H H H H H H J H H H H H H H H H H H H H H H K E ~ -.K H H H H H H H H H H H H H H lX} H H H H H H H H H H ",
"H H H H H H H H J H H H H H H H H H H H H H H H H H H H J H H H H E ^ $.:.H H H H H H H H H H H H H H z.-XH H H H H H H H J G H ",
"H H H H H H H H H H H H H H H H H H H H H H H H H H H H U H H J H ( s.-.:.E H H H H H H H n V H E gXH H K H H H H H H H H H H H ",
"H H H H H H H H H H H H H H H H H H H H H H H H H H H H H H O.;.O.-.:.&.$.+.^ H H H H H H K H I jX' dXH H H H H H H H H H H H H ",
"H H H U H H H H H H H H H H H H H H H H H H H H H U H H T $ r e @ $ &.$ &.r $ O.I H H H H H H H lXlXZ H H H H H H H H H H H H H ",
"H H H { H H H H H H H H H H H H H H H J U H H H H J X X O # e e O $ -.@ e % . X X.H H H H U H H J W H K b Z H H H H H H H H H H ",
"H H H H H H H H H H m H H H H H H H H H J H H H H N p - % o % .   + T.# % t t 7.*.^ H H U J H H H J H H H H H H H H H H H H H H ",
"H H H H v.H H H H H B H H H H H H H H H H H H H H H 4.q.5.<.<.i i i i.o.6.w.1.4.p @.H H H H H H H U J H H H H H H H H H H H H H ",
"H H ~ gXiXK H H H H H H H H H H H H H H H H H H H R y d d d d j j j g g d 0 f 1.7.@.H H H H H H H H H H H H H H H H H H H H H H ",
"H H I kX<X..H H H H H H H H H H H A H H H H L U H H g a f s d d s s f h 0 8 5 u [.H H H H H H H Z H H H H H H H H H H H H H H H ",
"H H J K s.H H H H H J H H H H H H } J H H H H H H H K & * * < < < < 1 = * , > u tXH H H H H H H m H H H H H H H H H H H | H H H ",
"H H U H H H H H H H H H H H H H H H H H H H H H H H H & = < < , > 5 1 9 7 5 6 j :XH H H H H H H H H H H | H H H H H H H L H H H ",
"H H H H H H H H J H H H H H H H H H H H H H H H H H H q ; = = 3 3 8 , 9 8 2 1 k l.H H H H H H H H H H H H H H H H H H H H H H H ",
"H H H H H H H H  .H H H H H J L H H H H H H H H H H H F - = 8 > > 3 7 2 2 9 1 u.l.H H H H H H H H H H H H H H H H H H H H H H H ",
"H H H H H H H H H H H H H H U H H H H H H H H H H H H H - = , > 3 7 9 2 2 6 a /.J H H H H H H H H H H H H H H H H K b H H H H H ",
"H H H H H H H H H H H H H H H H H H H H H H H H H H J H & < , > 3 5 , , 9 a u @XH H H H H H H H H H H H H H H H H H H H H H H H ",
"H H H H H H H H H H H H H H H H H H H H H H H H H J H H : 1 > , 3 3 8 7 < 4 y 8XH H U H H H H H H H H H H H H H H H H H H H H H ",
"H H H H H H H H H H H H H H H H B H H H H H H H H H H H D ; 1 6 4 4 4 4 6 a t wXH H L J H H J H H H H H H H | H H H H H H H H H ",
"H H H H H H H H J H N H H H H H K H H U fXQ H H H H H H H Y w w a s a 1 ; w i hXH H H H H H H H H H H H H H H H H H H H H H H H ",
"H H H H H H H H H C H H H H H H H H H P jXL H H H H H H H H H K o.u g 4.9.@XaXH H H H H H H H H H H H H H H H H H H H U H H H H ",
"H H H H H H H H H H H H H H H H H H H H H H D H H H H H H H H H L H H H H H H H H H H H H H H H H H H H H H H H H H H J H H H H ",
"N C J H H H H H H H H H H H H H H H H H H H H H H H H H H H H H H _ ) H H H H H H H H H H H H H H H H H H H | H H H H H H H H H ",
"H H H H H H H H H H H H H H H H H H H H H H H H H H H H H H H H H a.[ H H H H H U K H H H H H H H H H H H H J H H H H H H H H H ",
"H H H H H H H J J H H H H H H H H H H H H H H H H H H H H H H H H J H H H H H H J B H H H H H H H H H H H H H W W H H H H H H H ",
"H H H H H H H A J H H H H H H H H H H { H H H H H H H A S H H H H H H H K H H H H H H H H H H H H H H H H H H O.3.H H H H H H H ",
"H H H H H H H v A H H H H H H H H H J J H H H H H H H H H H H H H H H H N H H H H H H H H H H H H H H H H H H A v.H H H H H H H ",
"H { H H H H H H H H H H H H H H H H J H H H H H H H H H H H H H H H H H H H H H H H H H H H H H H H H H H H H H H H H H H H H H ",
"H { A H H H H H H H H H H H H H H H H H H H H H H H H H H H H H H H H H H H H H H H H H H H H H H H H H H H H H H H H H H H H H ",
"H H D V H H H H H H H H H H H H H H H H H H H H H H H H H H H H H H H H H H H H H H J J H H H H H H H H { H H H H H H H H H H H ",
"H H H H H H H H H H H H H H H H H H H H H H H H H H H H H H H H H H H H H H H H U H H H H H ,Xn.H H H H J J H H H H H H H H H H "
};
