/* XPM */
static char *result[] = {
/* columns rows colors chars-per-pixel */
"64 64 255 2 ",
"   c #471803",
".  c #4A160C",
"X  c #571B01",
"o  c #621C02",
"O  c #4C2D0F",
"+  c #572607",
"@  c #5C2B0C",
"#  c #5B3309",
"$  c #5A2B13",
"%  c #5B3519",
"&  c #652705",
"*  c #6B2D04",
"=  c #622C0C",
"-  c #6B2E0B",
";  c #722C0A",
":  c #693507",
">  c #64330C",
",  c #6B330C",
"<  c #73330D",
"1  c #79370B",
"2  c #662D13",
"3  c #732E14",
"4  c #643315",
"5  c #6B3413",
"6  c #6D3B15",
"7  c #643519",
"8  c #6C341A",
"9  c #6B3A1B",
"0  c #733513",
"q  c #783516",
"w  c #733B14",
"e  c #7B3B13",
"r  c #743B1B",
"t  c #7B3B1B",
"y  c #5D3023",
"u  c #633B22",
"i  c #6C3A22",
"p  c #773D22",
"a  c #3C5910",
"s  c #515314",
"d  c #6E4910",
"f  c #764418",
"g  c #7C421C",
"h  c #675519",
"j  c #795719",
"k  c #57661B",
"l  c #516E19",
"z  c #6E691A",
"x  c #4D5933",
"c  c #794525",
"v  c #795624",
"b  c #72522D",
"n  c #576A27",
"m  c #587828",
"M  c #536A31",
"N  c #6E6A2B",
"B  c #7A6928",
"V  c #66772A",
"C  c #787B29",
"Z  c #667B39",
"A  c #7A7835",
"S  c #576343",
"D  c #6E7347",
"F  c #687844",
"G  c #853D18",
"H  c #8A3C25",
"J  c #84421C",
"K  c #89471C",
"L  c #97491C",
"P  c #85541B",
"I  c #935A1F",
"U  c #985A1F",
"Y  c #844323",
"T  c #8B4B24",
"R  c #894A29",
"E  c #944625",
"W  c #934C24",
"Q  c #9B4B24",
"!  c #944D2A",
"~  c #9B4C2A",
"^  c #8B5628",
"/  c #985627",
"(  c #93542B",
")  c #9C522B",
"_  c #934F32",
"`  c #995835",
"'  c #A24D27",
"]  c #A55428",
"[  c #AB542B",
"{  c #A45A2C",
"}  c #AC5A2C",
"|  c #B55A2A",
" . c #B35C2D",
".. c #A34E31",
"X. c #A25B33",
"o. c #A75936",
"O. c #AB5B34",
"+. c #B25E33",
"@. c #B65E38",
"#. c #88672A",
"$. c #84782D",
"%. c #8F6830",
"&. c #996737",
"*. c #897837",
"=. c #967636",
"-. c #A3682D",
";. c #B5622D",
":. c #AD633B",
">. c #A86638",
",. c #B46234",
"<. c #B4633B",
"1. c #B96838",
"2. c #A4723B",
"3. c #BA723A",
"4. c #C36B36",
"5. c #C36D3B",
"6. c #C37436",
"7. c #C4723B",
"8. c #CA733C",
"9. c #9A6747",
"0. c #887B42",
"q. c #91754B",
"w. c #A86843",
"e. c #B76B43",
"r. c #A97646",
"t. c #B77649",
"y. c #AF7855",
"u. c #BF7F63",
"i. c #C87645",
"p. c #CE7A4B",
"a. c #6E961F",
"s. c #739711",
"d. c #698636",
"f. c #728D32",
"g. c #778839",
"h. c #788747",
"j. c #718C4C",
"k. c #7A9746",
"l. c #768957",
"z. c #7B8F65",
"x. c #86AD0F",
"c. c #8BB312",
"v. c #8DB916",
"b. c #8DB718",
"n. c #90B61C",
"m. c #91BD1A",
"M. c #898727",
"N. c #87873B",
"B. c #95893A",
"V. c #A48A39",
"C. c #93B922",
"Z. c #97BB2A",
"A. c #86A03D",
"S. c #9BBD33",
"D. c #9DBE3B",
"F. c #A2BE3B",
"G. c #94C11E",
"H. c #98C623",
"J. c #9EC03B",
"K. c #A2C23E",
"L. c #888945",
"P. c #978746",
"I. c #889747",
"U. c #989748",
"Y. c #998B54",
"T. c #889A58",
"R. c #969857",
"E. c #AA8848",
"W. c #B9864C",
"Q. c #A5974A",
"!. c #B78955",
"~. c #AA9956",
"^. c #B09151",
"/. c #B59857",
"(. c #88A54B",
"). c #99A64B",
"_. c #8BA356",
"`. c #95AB57",
"'. c #98B250",
"]. c #A9AE4F",
"[. c #B7A558",
"{. c #ABB657",
"}. c #879864",
"|. c #94916A",
" X c #B99865",
".X c #A99771",
"XX c #93AE64",
"oX c #97A769",
"OX c #99A876",
"+X c #9DB476",
"@X c #A5A766",
"#X c #B8AE6D",
"$X c #A9B668",
"%X c #A6AA74",
"&X c #A6B778",
"*X c #B7B87B",
"=X c #CF8450",
"-X c #C78957",
";X c #C4965B",
":X c #C9A55D",
">X c #CA8F68",
",X c #C79864",
"<X c #D59A6B",
"1X c #CEA66F",
"2X c #D4A668",
"3X c #9FC044",
"4X c #A4C344",
"5X c #A7C64C",
"6X c #ABC756",
"7X c #B1CF5B",
"8X c #ABC567",
"9X c #B3CA68",
"0X c #B7D469",
"qX c #ACC477",
"wX c #B6CA79",
"eX c #BCD678",
"rX c #CDCD7A",
"tX c #C4D778",
"yX c #8F9E81",
"uX c #AC9E82",
"iX c #98AA87",
"pX c #B0AA8B",
"aX c #A6B686",
"sX c #B6BB8B",
"dX c #B3BA96",
"fX c #C7B18D",
"gX c #CBB7A4",
"hX c #D5B9A7",
"jX c #ABC386",
"kX c #B8C889",
"lX c #BCD287",
"zX c #B5CE96",
"xX c #B9C995",
"cX c #BDCCA7",
"vX c #C4D989",
"bX c #C6C797",
"nX c #CCCF90",
"mX c #D6CB96",
"MX c #C7D798",
"NX c #CFE390",
"BX c #C4CCA5",
"VX c #CADAA6",
"CX c #D5D3AD",
"ZX c #E9CFAD",
"AX c #E3D7A9",
"SX c #D7E5A8",
"DX c #DBE6B6",
"FX c #E2E8AC",
"GX c #E8E8B7",
"HX c #F6E7B9",
"JX c #F0F9BA",
"KX c #DFDECA",
"LX c #F6FAC9",
"PX c #EBF0D1",
"IX c #FCFAE7",
/* pixels */
"c.c.c.c.c.c.c.c.c.c.c.x.c.c.c.c.c.c.c.x.c.c.c.c.c.5XJ.c.c.vXjX+XNXlXvXVXVXVXVX5Xv.c.c.c.c.c.vXGXC.c.c.c.c.c.c.c.c.c.c.c.c.c.c.c.",
"c.c.c.c.c.c.c.c.c.c.c.c.c.c.c.c.c.c.c.D.zX9XwXH.5XiXdX5XJ.MXT.k.Z F l.M z.aXM lXJ.c.c.c.c.c.c.v.c.c.c.c.c.c.c.c.c.c.c.c.c.c.c.c.",
"c.c.c.c.c.c.c.c.c.c.c.c.c.c.c.c.c.c.x.6XM j.F jXjXl.l.zXlX5X9Xd.m m XXd.M d.z.XXcXeXkXn.c.c.c.c.c.v.c.c.c.c.c.c.c.c.c.c.c.c.c.c.",
"c.c.c.c.c.c.c.c.c.c.c.c.c.c.c.c.c.c.b.6Xn V m M l XX0XOXl.wX`.d.d.d.d.d.d.k.qXk.OXD F 5Xn.c.c.c.c.v.b.c.c.c.c.c.c.c.c.c.c.c.c.c.",
"c.c.c.c.c.c.G.c.c.c.c.c.c.c.c.c.H.+X5X6XT.f.k.d.m d.jXOXMXrX{.s.a l d.l k.k.D.k.f.g.M F 5X9X4Xc.c.c.c.c.c.c.c.c.c.c.c.c.c.c.c.c.",
"c.c.c.c.c.c.m.c.c.c.c.c.c.c.c.c.+Xz.l.+X`.(.(.m `.d.*XNXkXL.).A.a.d.d.l k.XX'.a.d.m k.MXjX}.cXc.c.c.c.c.c.c.c.c.c.c.c.c.c.c.c.c.",
"c.c.c.c.c.c.c.c.c.c.c.c.c.c.Z.'.jXoX}.k.(.k.oXlXkX$XAXbXbXL.(.a.f.8XI.d.l (.eXXX'.f._.NX&X}.BXc.c.c.c.c.c.m.c.c.c.c.c.c.c.c.c.c.",
"c.c.c.c.c.c.c.c.c.c.c.c.c.C.S &XwXOXd.l k.f.jXzX+X@X*.L.U.I.f.V f.f.g.z N g.I.`.(.XXk.8X&XzXK.c.c.c.c.c.c.v.c.c.c.c.c.c.c.c.c.c.",
"c.c.c.c.c.c.v.c.c.c.c.c.c.b.+XOXz.k.m l '.(.zXaXR.~.[.Q.U.).I.f.l V P.#././.Q.I.V g.XX+Xk.jX0Xc.c.b.c.b.c.c.c.c.c.c.c.c.c.c.c.c.",
"c.c.c.c.c.c.H.c.c.Z.n.c.c.b.C.8XXXf.d.d.d.eXLXOXM.U.Q.].B.M.).C z U.E.E.^.1XQ.*.h.n _.(.`.}.SX6XeX4XZ.n.c.c.c.c.c.c.c.c.c.c.c.c.",
"c.c.c.c.c.c.c.c.v.9XrXBX9XoX}.tX0Xd.l l A $XP.P.C M.[.:X=.#.[.~.V.;X[.V././.r.j Y.0.lX&XqXvXSXcX}.aXxXdX8Xc.c.c.c.c.c.c.c.c.c.c.",
"c.c.c.{.c.c.c.c.x.IXfXx sXOX&X+Xg.d.oX~.B v E. X].V.E.;X;X%.,X,X2XW.V.V.~. X&.9.<Xy.d P.$Xz.l.jXT.xXOXS wXn.c.c.c.c.c.c.c.c.c.c.",
"c.c.c.PXD.c.c.c.c.kXdXOXNXjXvX&XM $XP.#.;Xt.^  X:XW.=.r.&.f 9.y.E.&.j -.E.;X&.,X<X_ r.,XB.A Z cXMXzXMXOXdXBXZ.c.v.c.c.c.c.c.c.c.",
"c.c.c.c.c.c.c.c.8Xl.OXMX}.iXlXSX%XY.*.j t.fX9.9.!.J d + +   .     + # : f d P !.9._ <XW.d *.aXLXVXoXOXVX}.}.8Xc.v.c.c.c.c.c.c.c.",
"c.c.c.c.c.c.c.c.&XoXk.&XoXOXSXSXA Q.:X-./ -Xu.p @ @ + & f O %   y y . # : : - < H >X>XP V.[.=.%XGXoX&X}._.oXkXb.c.c.c.c.c.c.c.c.",
"c.c.c.c.c.c.c.S.wXxX+X0XNXnXSXaX*.d V.2X3.( 3 3 + 9 5 + i +   . . . i p w t , 3 3 R J 2.:XV.E.*.&XjXJXMX&XVXzXZ.c.c.c.m.c.c.c.c.",
"v.c.c.c.c.c.c.&Xl.xXC.5X`.8X@XA [.E.U E.T - 0 0 2 5 > 8 R X . O + X q Y Y q p q Y w w t.W.#.V.^.L.@XkX7X4XaXz.qXa.G.G.G.s.c.c.c.",
"v.c.c.c.c.c.c.{.&XxXwXlX@X).A N P.,X!.1 w t r G 0 q r 0 _ 2 + + O + t E E H R Y R g f g K !.:XB.U.L.sXeXzXzXzXH.G.G.c.c.G.c.x.G.",
"c.c.c.c.c.c.c.4X7X}.S MXFXP.L.Q.*.%.%.w Y H G E G H t p _ 7 $ O % @ H _ ..E Q E X.K T g f E.~.f.P.L.%XaXM iXZ.Z.s.G.x.x.c.c.c.c.",
"c.c.c.c.c.c.J.eXaX}.l.bXoXA *./.^.P J L ! R ..E G J J Y ` u $ % % $ R ....~ ' Q } L ) ! g d Y.~.~. XR.lXM aXxXD.G.G.x.G.c.c.c.c.",
"c.c.c.c.c.b.jXOXxXzXdXbXP.N.v %.=.K X.' ..Q ....K K K T X.5 @ $ % @ Y o.} ' [ ] 1.;.} / ! w q.^.#.#.I.R.zXzXsX6Xc.c.c.c.c.c.c.c.",
"c.c.c.c.c.c.9XaXjXVX&XaXU.[. X!.J G Q @.,.Q } { L L K / w.< = 4 7 = E +.;.} | } 4.;.} } ..G P &.!.!.P.A xXMXjXqXc.c.c.c.c.c.c.c.",
"c.c.c.c.c.c.'.OX&X*X&XR.z #.E.-XK ) ' 5. .} 1.{ L L L / e.G - 6 9 : E ;.1.;.;.;.6.4.4.5.[ Q T r.!.%.#.$.%XVXz.$Xc.c.c.s.s.c.c.c.",
"c.c.c.c.c.c.c.eXvX&Xn 0.E.I ( ^ e ) p.1.5.} ,.+.U L L / 1.G < , g = L } 3.,.;.;.8.6.6.1.1.<.( f %.P V.=.N dXwXJ.c.c.c.c.c.c.c.c.",
"c.c.c.m.c.c.c.7XT.wXmX0.:X:X2XR @ 6 / i.,.1.1.@...Q K ] e.1 - 5 5 = L 1.1.;.,.<.i.=X3.i.:.q d > =X:X:X$..XaXOXc.c.c.c.c.c.c.c.c.",
"c.c.c.m.s.c.c.dXT.k.*XA j / >.0 + 6 w.t.t.{ ] G ; L W / t.q 2 9 6 , ) ,.1.:.E < W >.3.t.e.Y + > 2.I P #.L.}.}.D.c.c.c.c.c.c.c.c.",
"c.c.c.c.x.n.c.6XMXvX$X~.^.r.t.p $ u 9.( >.< q q t r < T t.t $ 7 7 = T { ; T p p c 6 ( &._ R $ $ ` 2.^.].A MXwXb.c.c.c.c.c.c.c.c.",
"c.c.c.c.c.c.c.n.aXoX$XQ.!.<X-X4 $ + + 5 + w Y p 8 r , , _ t i 7 c 4 T K * 0 $ i c ^ & - & X y $ t.<X^.).@XR.bXc.c.c.c.c.c.c.c.c.",
"c.c.c.c.c.c.c.Z.oXj.U.$.j ( _ f $ u r & * : c p 8 2 + w w.G 3 7 9 @ K { + w 4 c ^ c : , 3 3 $ $ _ ( d f.).A bXc.c.c.c.c.G.c.c.c.",
"c.c.c.c.c.c.c.c.lXMXI.B. X<X-X5 $ p y.:.t.1 3 & X R R T e.e = 8 9 , / ] { ` 0 X w * &.i.w._ 2 $ w.>X^.V.U.NXKXc.c.c.c.c.G.c.c.c.",
"c.c.c.c.c.c.c.c.nXlX$XP.E.W.y.0 $ X E =X;.-.e...H _ E ) e.1 & 6 8 - L 4.[ @.o.~ e.=Xt.p...2 @ + ^ y.=.$.f.*XLXc.c.c.c.c.c.c.c.c.",
"c.c.c.c.c.c.c.c.jXXXfXB =.=.%.w 8 _ e.i.,.} @.O...E ~ ~ -.1 e : r < L | @.| @.e.i.7.3.i.O...b % v =.=.P.N.T.cXc.c.c.c.c.c.c.c.c.",
"c.c.c.c.c.c.c.b.tXkX.X!.#XV./.g f >.1.p. .|  .+.L ~ Q Q -.1 < 2 6 - L | 4.| [ 1.8.6.6.6.] { ` , *.Q.:X[.0.pXIXc.H.c.c.c.c.c.c.c.",
"c.c.c.c.c.c.c.n.zXOX Xv B.B.#.d g ) ] 8.| |  .+.] Q L ] O.G - 6 6 * L | | [  .;.8.8.6.6.} U / : #.].M.#.~.|.KXv.v.c.c.c.c.c.c.c.",
"c.c.c.x.c.c.c.C.lXjX#XP.).B.E.g e :.8.8.| [ 1.+.' L ~ Q :.1 - 5 , - L @.[ @.,.@.8.8.8.4.;.O.~ * %.~.Q.Q.A #XKXc.c.c.c.c.c.c.c.c.",
"c.c.c.c.c.c.c.kXz.SX XQ.Q.[.^.1 e :.p.8.| ' @.O.' Q ..~ :.1 3 0 5 0 Q @.O.O.O.1.i.8.8.4.| +.) - &.V.].U.N @XOXPXc.c.c.c.c.v.c.c.",
"c.c.c.c.c.c.n.7XOXSXrX$.Q.=.^ t G ) } i.| [ [ O.~ E q ~ >.t 5 8 r 5 ~ O.:.G W e.i.5.i.8.' ' ) - ^ ^.U.M.L.MXpXIXc.c.c.c.c.c.c.c.",
"c.c.c.c.c.S.lXaXlXSX`.~.~.,X>X0 G ] ;.8. .] O.@.! q X Y >.g 2 7 9 - E <.T * & X.i.5.8.5.' Q / < &.2XQ.).U.SXMXiXJ.c.c.c.c.c.c.c.",
"c.c.c.v.c.9X}.h.xXoX~.P.E.y.&.1 e <.=X7.,.~ <.` t , o t ^ 6 $ % 7 - T &.5 > X Y ,.i.7.1.| ~ / * K &.B L.`.#XqXh.+Xc.c.c.c.c.c.c.",
"c.c.c.G.n.7XlX|.T.%XfX0.&.&.r.e 1 -.3.4.,.{ >.T X r 0 Y w 6 # f 9 @ ( 1 + d c c G i.i.1.} ] / * >.t.2.[.*.R.U.&X9Xc.c.c.c.c.c.c.",
"c.c.c.Z.wX*XeXSX+XnXfXy.2X1X<XK 1 ] L 3.;.} >.J - ( 9._ * f 7 9 c 5 T < d 9.y.f G =X4.4.] L ( * 3.2XW.:X0.@XMXGXwXaX3Xc.c.c.c.c.",
"c.c.c.lX}.}.lXvX&XSXZX` 2.I / e 1 >.4.7.;. .:./ o G ! X w f 6 @ = 5 / 1 & R Y X L =X8.4.} ) ~ * P -./ U =.bXsXvXlXl.yXD.c.c.c.c.",
"c.c.Z.PXDXoXtXvX_.bXhX9.,X;Xt.K G { 5.8.| | [ :.G o o ; >.1 * w 0 - L ,.1 X o J p.p.8.4.@.+.W & w.<X-X-X%.Y.sX9XeXOXeXc.c.c.c.c.",
"c.c.n.IXSXqXlX0XzXbXfXy.,XW.>XG 1 ,.i.4.| 1. .} X.~ ~ X.>.J * 2 3 - L <.<.O.w.<.8.4.8.4. .O.E ; >.;X-X-X$.sXvX6XkXwXn.c.c.c.c.c.",
"c.c.n.b.xXl.&XvXvXT.@X#./ { ( w G / ] 1.@.@.| +.Q Q ~ ~ <.1 & r 6 < E @.<.{ o.<.i.8.8.1.' / E < J ^ P #.P.%X5XF.T.T.5Xc.H.c.c.c.",
"c.c.b.c.lXxXOXlXNXxXR.^.:X2X>Xr 6 ` >.i.+.[ @.@.] ) ) ~ >.G 0 5 r - L +.+.O.:.1.4.5.3.3.:...Y + 2.2X/.[.L.bX5X9XoXkX4Xc.m.c.c.c.",
"c.c.c.c.b.5XxX}.zXkXR.L.2.3.w.2 @ - T 1.1.+.+.] L ! ) X.X.e , 9 4 : Q 1.,.O.~ ' i.8.3.>.( t = & K ` =.R.I.NX8X_.4Xv.c.c.c.c.c.c.",
"c.c.c.c.b.J.lX}.+XoXI.U.2.r.r.6 + r r.t.>.J J - - T T E w.f = 7 7 6 / O.E ` G * 1 K -.t.w.R + = ` !.P.Y.}.{.R.}.S.c.c.c.c.c.c.c.",
"c.c.c.c.v.6XlXlXeX}.D @X,X<X>Xw $ $ p Y p 3 c f 6 r 0 q ` p 2 5 5 = _ _ 2 p f c c c p R t 8 $ + &.,X/. X0.].J.K.b.b.s.x.c.c.c.c.",
"c.c.c.c.J.cXlXqXlX}.s B %.^ ( 5 + 7 2   @ 9 c 6 = 6 = 3 _ p 3 5 f - _ R - 2 % 7 c ^ = X & $ $ O ^ &.I %.B K.c.c.c.c.c.c.c.c.c.c.",
"c.c.c.c.J.vXiXjXaXz.a A ^.!.;Xg + - _ R _ & 3 1 * < ; G w.J - : < < ~ :.; H : : d @ J _ p c + # w.<X;X1Xq.].c.c.c.c.c.c.c.c.c.c.",
"c.c.c.c.s.6Xz.z.j.j.s C E.:Xr.6 + 9 w.p.O.E G ; & Q ` ) X.e , , : * ..e.o.X.J + f ( e.y.o.p O + &.( w.r.b {.H.c.c.c.c.c.c.c.c.c.",
"c.c.c.c.c.5XiXx M d.k z *.#.2.- + # P t.O.[ O.@.Q ) ~ X.w.e - 0 : * { :.+.[ >.,.i.3.p.<.) & = > ^ w.&.9.q.D.c.c.c.c.c.v.c.c.c.c.",
"c.c.b.D.6X7XiXDXSXz k U.[./.!.f d B &.2.<.' ..1.Q { ( E X.e , : g : ( <.@.' ] ,.3.1.p.e.:.` 6 # &.<X Xq.D S.c.c.c.c.m.zXcXZ.c.c.",
"c.v.m.VXcXxXcXLXLXMXg.I.N.P.#.% h N #.E.3.~ G +.X.W K ( w.p 5 5 6 - ` w.@.E O.1.i.[ L i.( c B d j #.N N D wXc.9XK.9XzXyXxXS.c.c.",
"s.c.9XVXiXyXDXKXGXJXMXg.g.g.Y.h N V A j J e K T t t w Y _ @ X = + + g ! E G K K ! K ( ^ ( h N s *.~.N A D sXnXkXtXFXBXyXMXZ.c.c.",
"c.c.CXdXz.MXAXAXJXGXSX8Xd.h.L.l m d.n d > 6 w * < 5 2 3 5 = 5 @ > > 5 - 3 3 - - w > d d N k k.l V L.n V A sXOXrXNXHXLXaXxXS.c.c.",
"c.v.MXpXpXFXAXHXHXHXJXJXXXn l s m d.V s # # > , 6 4 5 5 8 8 8 8 4 9 4 r 2 r 5 8 4 > d s k Z f.d.k k s l Z D sXtXAXnXFXVXxX7Xc.c.",
"c.c.4X0XSXHXZXHXHXAX1XbXnX@Xh.k m j.n A P.b @ 4 $ # 2 = = 2 @ 7 $ $ 2 @ 7 $ 2 $ O s O k N.`.I.V k a V R.%XbXvXHXAX XsXpXdXbXC.c.",
"c.c.c.mXbXAXCXZXZXHXZX1X1XfXAXVX&XZ MXLXLXHXb % u u u u u u 7 r % h y u u u u u % % % fXJXJXvXd.h.sXGXkXfXLXHXgX#XuX.X.XpXMXZ.c.",
"c.G.c.MXq.q.|.|.>XuXfX.XY..XuXuXoXaXbXbXhXpX.X$X{.{.{.{.{.{.{.{.*XfXhXhXhXhXhXhXhXhXCXZXAXAXsXU.'.5X@X|.|..XpXfXuX.XpXsX9XZ.c.c.",
"c.G.x.S.tXgXbXBXhXhXgXfXfXfXpXpX9XS.6X*XrX9XF.c.n.c.n.v.c.v.c.c.v.c.n.c.n.n.Z.K.H.J.'.{.].'.].n.c.n.S.4XS.6X5X6X5XK.S.c.c.c.c.c.",
"c.c.x.x.c.c.n.x.n.n.c.c.c.c.n.c.c.c.c.c.x.c.c.c.c.c.c.c.c.c.c.c.c.v.c.c.c.c.v.c.c.c.c.v.v.c.c.c.c.c.c.c.m.c.c.c.v.c.c.c.c.c.c.c.",
"c.c.c.c.c.c.x.n.x.x.c.c.c.c.c.c.c.c.c.c.c.c.c.c.c.c.c.c.c.c.c.c.c.c.c.c.c.c.c.c.G.c.c.c.c.c.NXrXc.c.c.c.v.v.c.c.c.c.c.c.c.c.c.c."
};
