/* XPM */
static char *_03ff1b535b44cfbd63750944141bf67A4oQrXnd3TIgRHMZ[] = {
/* columns rows colors chars-per-pixel */
"64 64 256 2 ",
"   c #521C06",
".  c #582709",
"X  c #5D3210",
"o  c #642E10",
"O  c #693716",
"+  c #733B19",
"@  c #713B24",
"#  c #6F491B",
"$  c #585C23",
"%  c #7A4726",
"&  c #765724",
"*  c #725329",
"=  c #546B2E",
"-  c #796629",
";  c #6E7033",
":  c #777637",
">  c #5B7641",
",  c #78784A",
"<  c #B0343E",
"1  c #844319",
"2  c #854B27",
"3  c #8F5630",
"4  c #A55D2C",
"5  c #896734",
"6  c #94663A",
"7  c #8E7236",
"8  c #86773A",
"9  c #AD6735",
"0  c #B93748",
"q  c #B03752",
"w  c #B83A57",
"e  c #BA3D62",
"r  c #C52C4B",
"t  c #C2334E",
"y  c #D4324F",
"u  c #C92C53",
"i  c #D72B58",
"p  c #C73456",
"a  c #D4335C",
"s  c #D8355A",
"d  c #E42B5C",
"f  c #E5335B",
"g  c #DA2D62",
"h  c #CB3B64",
"j  c #D93764",
"k  c #E42B64",
"l  c #E63567",
"z  c #E93B71",
"x  c #B54D56",
"c  c #9A6945",
"v  c #887844",
"b  c #987946",
"n  c #8C7752",
"m  c #AA724C",
"M  c #A57855",
"N  c #B74967",
"B  c #AD5069",
"V  c #B7566A",
"C  c #937964",
"Z  c #AE786F",
"A  c #B96777",
"S  c #C64858",
"D  c #CF4E59",
"F  c #CA4565",
"G  c #D74569",
"H  c #C75769",
"J  c #D95667",
"K  c #D54D76",
"L  c #C95776",
"P  c #E94777",
"I  c #EB5174",
"U  c #C86778",
"Y  c #D16970",
"T  c #C9747A",
"R  c #EB6D75",
"E  c #799612",
"W  c #6F8539",
"Q  c #77894E",
"!  c #7E9261",
"~  c #87AE0A",
"^  c #85AD0C",
"/  c #88B606",
"(  c #8CB404",
")  c #8BB20D",
"_  c #91BA07",
"`  c #86AC13",
"'  c #88AD18",
"]  c #96AC15",
"[  c #8BB312",
"{  c #8AB713",
"}  c #8DB31A",
"|  c #92B514",
" . c #92B914",
".. c #92B61A",
"X. c #95B91A",
"o. c #8F9C23",
"O. c #8FAB2C",
"+. c #8DB021",
"@. c #92B525",
"#. c #96B929",
"$. c #99BA37",
"%. c #A9B532",
"&. c #CBB432",
"*. c #8FC110",
"=. c #9EC139",
"-. c #A1CA23",
";. c #A5C33D",
":. c #888647",
">. c #978649",
",. c #8C8D53",
"<. c #958B55",
"1. c #879658",
"2. c #999959",
"3. c #AA8556",
"4. c #B08C55",
"5. c #A89759",
"6. c #99B24C",
"7. c #A4BC49",
"8. c #ADB057",
"9. c #8F9169",
"0. c #989967",
"q. c #B4896E",
"w. c #A59A66",
"e. c #A79A76",
"r. c #B89877",
"t. c #93A86E",
"y. c #A7A869",
"u. c #B4B368",
"i. c #A9A977",
"p. c #B6AA78",
"a. c #A9B577",
"s. c #B4B777",
"d. c #C08B5F",
"f. c #CD8F78",
"g. c #C7B07A",
"h. c #9FC84B",
"j. c #A9C648",
"k. c #ABC653",
"l. c #B4C958",
"z. c #B7C865",
"x. c #B9D368",
"c. c #B8CD72",
"v. c #C3D279",
"b. c #C8E777",
"n. c #BB7283",
"m. c #F05684",
"M. c #C76F89",
"N. c #D86783",
"B. c #C67584",
"V. c #D87987",
"C. c #DA7A93",
"Z. c #EF6C8F",
"A. c #E67896",
"S. c #FE7BA7",
"D. c #B79286",
"F. c #9DAC8A",
"G. c #A6A884",
"H. c #BAA98A",
"J. c #ACBA88",
"K. c #B6B886",
"L. c #BCA897",
"P. c #BBB695",
"I. c #D0908E",
"U. c #DA869A",
"Y. c #F0908D",
"T. c #E7849A",
"R. c #D3AE8C",
"E. c #C5B78A",
"W. c #C8A899",
"Q. c #C8B897",
"!. c #FBA797",
"~. c #E6B092",
"^. c #F7B799",
"/. c #D596A6",
"(. c #EA8DA4",
"). c #F18BA1",
"_. c #E696AA",
"`. c #F696AB",
"'. c #E99DB2",
"]. c #F89AB2",
"[. c #CFA9AB",
"{. c #D8B8A7",
"}. c #DAA8B4",
"|. c #DCB7B7",
" X c #FAA9AA",
".X c #F0B1A6",
"XX c #E9A8B8",
"oX c #F6A8BA",
"OX c #E6B5BC",
"+X c #F7B5B9",
"@X c #B3C386",
"#X c #B6CB91",
"$X c #BFC4B0",
"%X c #C6D687",
"&X c #C9C898",
"*X c #C8D797",
"=X c #D5D094",
"-X c #E6C999",
";X c #FDCB9E",
":X c #D3E894",
">X c #D6E898",
",X c #C9C8A8",
"<X c #D4C6A6",
"1X c #CBD5A4",
"2X c #D9D6A8",
"3X c #D7CDB6",
"4X c #D7D9B6",
"5X c #FCC8A6",
"6X c #F9D3A7",
"7X c #EFD0B1",
"8X c #D7E7AB",
"9X c #E7E9B1",
"0X c #DDB6C1",
"qX c #F5AEC1",
"wX c #FCADC2",
"eX c #EBB3C1",
"rX c #E7B9C5",
"tX c #EDBBC5",
"yX c #F4B3C3",
"uX c #FBB3C4",
"iX c #F4BAC6",
"pX c #FCB8C7",
"aX c #F4BCCA",
"sX c #FCBCCB",
"dX c #FFA5D3",
"fX c #FFBED2",
"gX c #DBD2C3",
"hX c #E9C7C8",
"jX c #F9C7C1",
"kX c #F4C2CC",
"lX c #FBC2CE",
"zX c #E9D2CA",
"xX c #FEC4D3",
"cX c #FACAD5",
"vX c #FFCDDB",
"bX c #EBD6DA",
"nX c #F6D6DA",
"mX c #FDD2DC",
"MX c #F0EBCC",
"NX c #FFCEE0",
"BX c #FBD9E4",
"VX c #FCDCE4",
"CX c #EEEFEB",
"ZX c #F4E4E4",
"AX c #FBE3E5",
"SX c #FEE5EA",
"DX c #F7E8E8",
"FX c #F5ECEB",
"GX c #FCEBED",
"HX c #F4F1EE",
"JX c #F9F0EE",
"KX c #F8ECF3",
"LX c #FCEDF1",
"PX c #F4F2F2",
"IX c #FBF0F2",
"UX c #FAF3F9",
/* pixels */
"[ [ [ [ [ [ [ [ [ [ [ [ [ [ [ [ [ [ [ [ [ [ [ [ [ [ [ $.7.v.*X1X1Xz.#.[ [ [ [ [  .X. .^ ` $.x.>X .} [ ) [ [ [ [ [ [ [ [ [ [ [ [ ",
"[ [ [ [ [ [ [ [ [ [ [ [ [ [ [ [ } [ [ [ [ [ [ } ) 5.D.D.D.q.P.Q.Q.hXzX&X@.[ [ [ ^ ) ) ) ` +.$.k. .} [ [ [ [ [ [ [ [ [ [ [ [ [ [ ",
"[ [ [ [ [ [ [ [ [ [ [ [ [ [ [ [ } } [ [ [ [ [ 4.V B T .X.XT .XjX'.I.XX|.hX,X} [ ` [ [ | | } ' ' { [ [ [ [ [ [ [ [ [ [ [ [ [ [ [ ",
"[ [ [ [ [ [ [ [ [ [ [ [ [ [ [ [ } [ [ [ [ [ Z F U T V. X XV.).).Y V.`.B.XX}.F.$...} ) ) | | [ ` } [ [ [ [ } [ [ [ [ [ [ [ [ [ [ ",
"[ [ [ [ [ [ [ [ [ [ [ [ [ [ [ [ [ [ [ ) [ M p S U..XI.).Z.I m.P j G G R T.U.|.F.6.$.' ~ ~ ) ) [ [ [ ) [ } } [ [ [ [ [ [ [ [ [ [ ",
"[ [ [ [ [ [ [ [ [ [ [ [ [ [ [ [ [ [ ) ) 4.p F H _.+XV.N.j g k l d l u G F N.XXG.t.= 6.[ ) ) ) ) [ [ ) [ } } [ [ [ [ [ [ [ [ [ [ ",
"[ [ [ [ [ [ [ [ [ [ [ [ [ [ [ [ [ [ [ O.a j Y Y.I.V.h z l l l k d l s s j p V.J.= = > $.@.[ [ ) [ ) ) [ } } [ [ [ [ [ [ [ [ [ [ ",
"[ [ [ [ [ [ [ [ [ [ [ [ [ [ [ [ } } $.e l s T. XA.I g z k k l k l i i j j h L I.W = #Xt.! } [ [ [ ) ) [ } } [ [ [ [ [ [ [ [ [ [ ",
"} [ ) ( (  .X.'  ./ E / @.#.} / [ $.x g l j N.`.I a i l k k d l P m.P Z.Z.m.N.M.H.W #X@X! %.| [ [ [ [ [ [ [ [ [ [ [ [ [ [ [ [ [ ",
"} ^ ) [ ^ ^ ..[ +.=.;.#.' } } ~ @., p k l j wXS.j l a s f z P I m.P P Z.Z.m.K N.I.Q t.t.#X$.} { [ [ [ [ [ [ [ [ [ [ [ [ [ [ [ [ ",
") ^ } #.+.` [ ) O.%X>Xz.' _  .` } r.j k g m.NXZ.g u R R D y l l i s z P z l j h A ; 1.Q t.c.k.h.} [ [ [ [ [ [ [ [ [ [ [ [ [ [ [ ",
"( ^ #.j.=.+.[ ( %.:X9Xc.[ (  .$.c.I.j d g S.dXK G p Y.!.Y.R p a s j i l l d l h A 0.0.! t.8X4X1Xz.j.#.[ [ [ [ ) [ [ [ [ [ [ [ [ ",
"( ^ #.j.=.+.[ ( | l.c.7.~ / Q a.Q q.j k j S.Z.h t Y !.^.5X!.Y x J R G y f d l p n.v p.i.P.1X1.Q J., %X=.[ [ [ ) [ [ [ [ [ [ [ [ ",
"| ^ } #.+.` [ ) ( | @.@...=.= a.@XQ.j l g P l p H !.^.g.5X5X!.f.H Y.Y.J f l a w r.# - >.: = #Xt.1X$ 1Xx.=.} [ ^ [ [ [ [ [ [ [ [ ",
"| ^ [ [ ^ ^ ..[ / / ) @.z.: @X@Xa.{.z l g i s J !.~.c M ^.5X5X5X^.^.^. XJ t w T 2 5 f.- & y.8X@Xa.*XQ i.x.} [ ^ [ [ [ [ [ [ [ [ ",
"} [ | _ (  .X.' ' { _ $.Q Q t.9.Z V.z k k s D Y.5XM # g.5X5X6X;X6XR.q.Y.H 0 T M 2 4.3 # <.,.9Xa.Q t.! , 4X#.[ ^ [ [ [ [ [ [ [ [ ",
"[ [ [ [ [ [ [ [ ^ ^ } j.@Xt.t.Q.V K z k k f J !.5Xf.M R.6X6X;X;X^.% q.~.x D V.Z + 6 # 3.3.- :.&X&X#X! #X8Xv.}  .[ [ [ [ } } [ [ ",
"[ [ [ [ [ [ [ [ ^ ^ @.i.t.>Xv.&XV.j g k d l J R f.^.5X5X6X6X5X5X~.M q.I.S t H Z O . c 3.& >.8 ,.K.9X:XJ.1.:X[ } [ [ [ } } } [ [ ",
"[ [ [ [ [ [ [ [ ^ [ $.*X9.8Xb.i.T a g i i i G D S !.6X5X5X5X;X;X6X-X5X!.t r H Z % @ O % b >.:.8 ,.MX8XF.J.v.[ [ [ [ [ [ [ [ [ [ ",
"[ [ [ [ [ [ [ [ [ [ #.x.8X= i.7XF a j u u i i y J 5X5X5X~.5X5X;X5X6X6XY.0 p S U 3 @ + O b b - v <.&X$ #X>Xx.) [ [ [ [ [ [ [ [ [ ",
"[ [ [ [ [ [ [ [ [ } $.1XJ.= i.A p s u r u y r r S  X5X6X~.R.f.~.5X6X^.Y 0 p p L Z 2 2 + X >.>.>.v K.; t.#Xv.) [ [ [ [ [ [ [ [ [ ",
"[ [ [ [ [ [ [ [ [ @.Q.y.K.*XP.V j i r u r p r 0 0 x Y.5X5X~.f.5X^.Y.Y 0 0 y a L Z 3 3 2 # b 5 & v , J.*X#X>X[ [ } [ [ [ [ [ [ [ ",
"[ [ [ [ [ [ [ [ [ [ z.0.K.@XH.L j d y y r r p p 0 < x f.^.^.^.!.Y x 0 0 r u j K f.4 4 1 + + b 3.v ; a.@X0.4X@.} } [ [ ) ) [ [ } ",
"[ [ [ [ [ [ [ [ [ [ $.0.K.1.C L i f i r t 0 p t p t < Y.^.g.f.m S 0 0 t u a G L m 4 4 3 2 % m 3 # : : J.9.4X.. .} [ [ ^ ^ [ [ } ",
"} } } } } } } } / / ..z.a.1.n L j d u p t t p u s J Y ^.-XE.<XI.Y J p p i j L I.9 9 9 4 3 O % 6 b v ; a.2X8X[ [ [ [ [ [ [ [ [ [ ",
"[ [ [ [ [ [ [ [ { ) ..p.: s.<.A P l s p r u p j m.R x ~.Q.E.<X{.U S F t a G C.q.m 9 m 3 . o % 4.b - :.Q 0.*X[ } [ [ [ [ [ [ [ [ ",
"[ [ [ [ ) ) ) )  . ...s.2.2.:.M K j l i i u u I I J x ~.{.Q.Q.{.T x Y x F N.I.O + 2 c c %   O * # 8 ; 1.i.%X[ } [ [ [ [ [ [ [ [ ",
"[ [ [ [ [ [ [ [ [ [ [ 7.u.y.<.5.I.K g k l u r J J S x I.{.{.7XjXY.V.oXV.V XXC @ + + @ o X X O 3.4.5.:.i.4X2X[ } [ [ [ [ [ [ [ [ ",
"} } } [ [ [ [ } ] ] [ #.; :.v # 3 A h j a t w H H H T .X+X7X+XpX`.U  XxXXXcXC @ % O     O . X 5 & & <.; P.MX[ [ [ [ [ [ [ [ [ [ ",
"[ [ [ [ [ [ [ [ ] ] ] | 2.,.: 7 m M N.h a p 0 H !.Y.V.+X+XpXyXpX+Xx V.BXSXAXgXL.Z o c 3 % . X 6 7 5 ,.y.<X%X[ [ [ [ [ [ [ [ [ [ ",
"[ [ [ [ [ [ [ [ %.%.] | u.2.>.3.3.M B.G j y < R +Xf.U oXuXaXtXaXoXU N (.vXSXAXzX|.f.c c o . X 6 b 7 ; y.<X2X[ [ [ [ [ [ [ [ [ [ ",
"[ [ [ [ [ [ [ [ &.&.%.] :.y.- - M Z U K a r 0 Y.+XH x `.fXaXtXaXsX(.q V U.}.|.VXVXcXI.6 + O . 3 5 - : :.P.<X} [ [ [ [ [ [ [ [ [ ",
"[ [ ) ) ) [ [ [ [ [ [ #.s.:.8 4.3.N j l a w x sXlXV B ].sXtXtXaXaXuXC.q N B }.SXVXrXtXI.3 % X b >.5.8 w.<X{.-./ [ [ [ [ [ [ [ [ ",
"[ [ [ ) [ [ [ [ [ [ [ j.,.2.& 7 7 V j i p q T.VXoXB M.uXpXlXaX+XaXpXwXA.e V cXSXrX}.yXOXq.% . 7 8 - 8 <.H.{.[ / [ [ [ [ [ [ [ [ ",
"[ [ [ [ [ [ [ [ [ [ [ u.y.y.8 b 7 B p a w U NXNXV.q (.sXpXpXyXsXpXuXpXwX_.'.aX}.XXXXwXaX|.% O 3.>.:.- w.E.<X' ( [ [ [ [ [ [ [ [ ",
"[ [ [ [ [ [ [ [ [ [ @.y.:.2.8 >.>.q.q N B pXVX/.q N.oXXX_.uXuXsXuXsXsXaXlXaXlXaXoXwXoXvX|.W.O 5 b >.$ :.2.&Xs. .[ [ [ [ [ [ [ [ ",
"[ [ [ [ [ [ [ [ [ [ ;.y.y.s.: 8 5 c I.A }.mXmXI.V oXoXI.B._.iXiXpXsXiXkXcXmXxXoXwXwXXXxXrX0Xn 6 >.:.: 2.y.&XQ.` [ [ [ [ [ [ [ [ ",
"[ [ [ } [ [ [ [ [ [ 8.,.s.2.:.<.4.3.hXBXBXSXmXtXXXfX(.A B B.iXkXlXaXiXiXrXeXyXyXpXpXXXxXmX}.[.M b b :.2.2.,.&X' [ [ [ [ [ [ [ [ ",
"[ [ } } } [ [ [ [ #.>.: ,.,.v & 3 L.nXmXcXkXcXtXxXxX`.U B C.sXaXkXtXiXaXxXyXeXxXaXaX}.xXvXOX|.W.& 5 >.:.W : a.#.[ [ [ [ [ [ [ [ ",
"[ [ } } } [ [ } ;.k.z.2.:.w.8 M 3.hX}.XXXXXXeXcXvXsXwX).T.'.uXsXiXkXlXiXsXaXaXaXkXOX'.fXxXfXeXhXR.4.8 8 2.s.K.$.[ [ [ [ [ [ [ [ ",
"} { / ( ( / { k.i.<.8.y.2.p.5 m 4.0XiX'.qXsXxXvXkXiXuX'.qX'.oXiXiXiXaXsXaXiXkXxXxXXX(.C.T.].oXaX|.5 5 <.y.s.2.:.[ [ [ [ [ [ [ [ ",
"{ ^ +.$.$.+.^ c.i.:.u.u.:.w.6 6 W.rXxXoXwXpXaXkXkXkXeXXXxXXXXXqXsXpXpXsXaXkXaXaXyXwX`.A.Z.N.V.xXrXW.- 8 y.v.:.: [ [ [ [ [ [ [ [ ",
"( ^ 7.:X:X7.^ v.%Xi.y.s.5.p.6 f.rXyXvXyXXXsXkXkXlXyXXXXXvXfXXXXX'.oXuXpXaXaXpXpXXX'.(.A.Z.K N.pXaXOX- >.y.s.y.o.[ [ [ [ [ [ [ [ ",
"( ^ k.>X>Xk.^ ;.&X, 2.E.5.>.5 W.XXxXBXxXoXpXaXtXaXyX'.eXSXBXeXyXoX]._._.}.XX_._._._.'.].S.N.C.pXvXtXr.<.y.u., E [ [ [ [ [ [ [ [ ",
"..[ #.;.;.#.[ k.&Xi.,.p.y.>.b rXeXvXcXmXoXoXiXkXaX}.XXcXVXSXnXtXpXuXwXoXXXXX].].'.oX+XoX].A.T.wXsXaX{.5.g.2.<.E [ [ [ [ [ [ [ [ ",
"} [ ) ( ( ) [ @.2X=Xi.,.a.:.W.0XOXNXxXpX`.].uX+XXX}.OXmXLXLXVXnXeXyXaXsXuXuXuXpXsXpXyXyXoX'.(.C._._.[.2.2.,.=Xo.[ [ [ [ [ [ [ [ ",
"` [ [ | | [ [ ` 3X2Xi.Q 1.:.|.OXaXsXA.F h Z.].].'.XXcXAXFXIXUXVXBXhXrXOXiXsXpXuXpXyXlXlXOXXXoXU.C.C./.<.:.2.<Xo.[ [ [ [ [ [ [ [ ",
"*.[ ' +.+.' ) *.3XQ.&XK.a.G.rXXXqX(.K p F S.`.].XXlXVXSXFXFXLXGXFXZXnXcXkXrXOXOX}.OXiXsXkXaXwXoXU.U.|.w.E.P.Q.' [ [ [ [ [ [ [ [ ",
"[ [ [ [ [ [ [ [ gXP.G.G.t.[.aX_.(.T.L H A.`.wXpXBXBXVXGXPXPXPXPXCXFXDXSXSXSXAXAXzX|.XXpXaXiXsXsXoXeXW.g.Q.Q.Q.[ ^ ^ ^ ^ [ } [ [ ",
"[ [ [ [ [ [ [ [ gX,X9.9.,.tXyX/.(.].).`.oXpXmXVXVXAXSXGXIXPXPXPXHXHXGXGXKXJXHXFXAXnXiXXXXXtXxXaXfXXX[.r.R.[ [ [ ^ ^ ^ ) [ } [ [ ",
"[ [ [ [ [ [ [ [ 3XMX, $ H.eXXX_.`.].].oXiXcXAXSXSXSXSXLXLXKXKXIXHXJXGXLXIXIXIXIXSXSXVXcXeX}.}.XX'./.[.R.H.[ [ [ [ [ [ [ [ } } [ ",
"} [ [ [ [ [ [ [ gX2X0., |.tXXX/.`.].oXaXmXAXSXZXZXFXGXLXLXLXKXKXFXGXKXKXKXKXPXUXGXBXnXSXLXBXcXcX'./.[.R.u.[ [ [ l.c.;.[ } } [ [ ",
"[ [ [ [ [ [ [ %X,X,X0.MX|.OXXXoXtXhXnXAXSXGXGXZXZXFXGXKXLXGXLXKXJXHXIXKXKXKXUXUXLXLXDXZXVXSXSXSXmXkXL.p.<X[ [ z.H.P.z.} [ [ [ [ ",
"^ [ [ [ [ [ [ MXG.i.=X9X[.}.xXVXAXAXAXAXAXZXZXZXZXFXKXIXIXKXLXLXJXHXPXPXPXKXPXIXLXLXFXbXBXSXIXFXLXbXH.p.H.E.v.&X9.3Xx.} [ [ [ [ ",
"^ ^ ^ ^ [ [ [ gX! 9.-X=XhXkXBXVXSXAXSXSXSXSXAXZXFXHXPXPXPXIXIXLXIXJXCXCXHXPXFXGXSXSXGXSXnXBXFXGXSXkXL.<.e.=X%X=Xi.,Xj.} [ [ [ } ",
"^ ^ ^ ^ ^ [ j.$X, 2XE.-XzXnXVXmXAXSXSXSXAXAXVXAXGXJXPXHXFXPXIXKXIXIXPXCXJXGXGXSXAXzXOX|.rXnXSXBXrX[.e.; E.:Xg.2X2X1Xj.[ [ [ [  .",
"^ ^ ^ [ [ [ } 8X4X2X-X6X7XbXnXVXVXAXSXSXAXZXZXDXJXGXFXHXPXHXPXPXKXUXZXIXSXAXcX7X|.OX/.I.XXvXNX0X[.[., p.9X-Xp.w.G.P.%X_ | [ ' ' ",
"[ [ } } } [ [ >XP.<XQ.R.7X7XbXbXVXBXVXAXSXSXDXZXGXGXGXIXIXIXKXGXLXLXLXmX+XI.U. X+X+XT U.lXnXeX|.3Xa.K.9X2Xe.w.<., G.*X( [ ` ^  .",
"[ [ [ [ [ ) ^ *Xe.C C n w.r.e.bXbXBXVXVXVXAXSXLXSXGXSXDXSXSXLXLXBXfXeXXXA q x Y. XY.S H hX<Xp.8.a.,.n e.e.e.i.e.3X2X7.} ..` ^ _ ",
"[ [ [ ) ) ) ^ z.9X3XgX7X<X{.W.H.{.bXbXbXnXVXVXBXSXSXSXSXVXvXyX_.M.n.W.g.8.d.x 0 S D p H R.8.| X.$.#.$.j.j.;.j.k.%X6.' } @.} ) ( ",
"} [ [ [ [ } [ [ [ [ [ [ [ [ [ [ } @.k.c.&X3XgXzXzXgXOX/.B.V N e B q.$.[ [ [ 8.q D y G K g. .| [ } [ ^ [ [ [ } } @...( ) [ ..| ^ ",
"} [ ^ ^ [ } } [ [ [ [ [ [ [ [ [ [ [ [ [ [ [ [ [ } [ #.u.B.V N V r.#.[ [ ) ) [ 4.w a m.U 8.} ' ' } [ ^ [ [ [ [ } ~ _ _ ~ ^ ..X.) ",
"[ ^ ^ ^ [ [ [ ^ [ [ [ [ [ [ [ [ [ [ [ [ [ [ [ [ [ [ [ [ [ [ [ ..{ [ [ [ [ [ [ ..r.B B I.#.} #.$.} [ ` [ { [ [ [ ) | ( ( ` } } ( ",
" .[ ^ ^ [ } } [ [ [ [ [ [ [ [ [ [ [ [ [ [ [ [ [ [ [ ) ) ) ^ [ [  .) ) ) | [ [  .} 8.z.7.^ @.l.b.} [ [ [  .} [ [ +.' ^ ..@.[ ^ ( "
};
