/* XPM */
static char *b2ee65b25af041e6fe99e0df03c2ff60KGm73DfiKCA1kf9s[] = {
/* columns rows colors chars-per-pixel */
"64 64 254 2 ",
"   c #714723",
".  c #B0343E",
"X  c #B93748",
"o  c #B03752",
"O  c #B83A57",
"+  c #B83C62",
"@  c #C32D4C",
"#  c #C8294A",
"$  c #C2334E",
"%  c #D4324F",
"&  c #C62B52",
"*  c #CD2C53",
"=  c #D72B58",
"-  c #C33354",
";  c #CB3453",
":  c #C8365A",
">  c #D53657",
",  c #D4335C",
"<  c #DC335E",
"1  c #E42B5C",
"2  c #E5335B",
"3  c #DA2D62",
"4  c #CB3B64",
"5  c #DB3364",
"6  c #D73865",
"7  c #DB3C65",
"8  c #E52965",
"9  c #E42D64",
"0  c #E93465",
"q  c #E53568",
"w  c #E93B71",
"e  c #A94D5B",
"r  c #B84859",
"t  c #BA5052",
"y  c #936B47",
"u  c #A57854",
"i  c #B27257",
"p  c #A54964",
"a  c #B74967",
"s  c #B7576B",
"d  c #B2566D",
"f  c #B6726D",
"g  c #B96776",
"h  c #C64858",
"j  c #D84559",
"k  c #C55859",
"l  c #CA4565",
"z  c #D74569",
"x  c #C75769",
"c  c #D95667",
"v  c #CA4D72",
"b  c #DA4775",
"n  c #C95776",
"m  c #D55478",
"M  c #E94777",
"N  c #F74879",
"B  c #E75472",
"V  c #C7656A",
"C  c #D56768",
"Z  c #CC746C",
"A  c #CA6678",
"S  c #D66779",
"D  c #C9747A",
"F  c #D6797B",
"G  c #EB6D75",
"H  c #7CB309",
"J  c #7EAE17",
"K  c #85AE03",
"L  c #8CAF04",
"P  c #86AD0C",
"I  c #89AD0E",
"U  c #85B202",
"Y  c #8CB403",
"T  c #89B70A",
"R  c #8BB20E",
"E  c #91BA07",
"W  c #86AC13",
"Q  c #89AE14",
"!  c #87AC1B",
"~  c #94AC13",
"^  c #85B411",
"/  c #8BB312",
"(  c #84B917",
")  c #8CBA13",
"_  c #8DB31B",
"`  c #92B414",
"'  c #9BB317",
"]  c #92B915",
"[  c #91B61B",
"{  c #93BA1A",
"}  c #A7B01C",
"|  c #89AB21",
" . c #93A92D",
".. c #8DB122",
"X. c #85B12C",
"o. c #93B523",
"O. c #94BA23",
"+. c #97B82B",
"@. c #9BB937",
"#. c #AFAE29",
"$. c #A4B63B",
"%. c #CBB432",
"&. c #8FC110",
"*. c #9EC139",
"=. c #A1C923",
"-. c #A7C53C",
";. c #B09455",
":. c #99A748",
">. c #A5AA48",
",. c #A6BD47",
"<. c #B1B355",
"1. c #B9876B",
"2. c #B9906E",
"3. c #B7B16A",
"4. c #CB9E5D",
"5. c #C78F73",
"6. c #DD8477",
"7. c #CDA778",
"8. c #C3BA75",
"9. c #ABC947",
"0. c #AAC354",
"q. c #B3CA59",
"w. c #B8C866",
"e. c #B8D26A",
"r. c #BAC975",
"t. c #C2CA73",
"y. c #C8E777",
"u. c #BB7283",
"i. c #E75681",
"p. c #FD558A",
"a. c #C66C86",
"s. c #D86783",
"d. c #C77486",
"f. c #D97986",
"g. c #CE7F95",
"h. c #DA7A93",
"j. c #EB6F8D",
"k. c #FB6592",
"l. c #E67896",
"z. c #FE7BA7",
"x. c #BB8A88",
"c. c #BFB194",
"v. c #CC8D8E",
"b. c #D78887",
"n. c #CA9987",
"m. c #DA869A",
"M. c #D69798",
"N. c #ED8E8F",
"B. c #F78584",
"V. c #F6978A",
"C. c #E7849A",
"Z. c #E69694",
"A. c #D9A783",
"S. c #CBB999",
"D. c #D1B493",
"F. c #E6AF91",
"G. c #FBA797",
"H. c #F7B799",
"J. c #CD98A7",
"K. c #DB94A6",
"L. c #E58EA4",
"P. c #EC8CA4",
"I. c #F18BA1",
"U. c #E696AA",
"Y. c #F696AB",
"T. c #E99DB2",
"R. c #F89AB2",
"E. c #D1A6AD",
"W. c #D9B7A5",
"Q. c #DAA8B4",
"!. c #DAB7B5",
"~. c #E6A7A9",
"^. c #FAA9AA",
"/. c #E6B3A9",
"(. c #FFB7A3",
"). c #E4A4B4",
"_. c #ECA4B5",
"`. c #E8AAB8",
"'. c #ECACBC",
"]. c #F2A6B9",
"[. c #FAA7B8",
"{. c #F3ABBE",
"}. c #E6B5BD",
"|. c #F7B5B9",
" X c #C6C987",
".X c #CBD58E",
"XX c #CDCA98",
"oX c #D5C59B",
"OX c #E6C197",
"+X c #FDCB9E",
"@X c #D6EA8D",
"#X c #D6E996",
"$X c #D8CCA8",
"%X c #D2D0AA",
"&X c #EBCAAF",
"*X c #FDC5A3",
"=X c #FAC9A5",
"-X c #FECBAA",
";X c #FAD1A6",
":X c #FDC6B6",
">X c #DFE2A3",
",X c #E6F2AC",
"<X c #FF9BC8",
"1X c #DEADC0",
"2X c #DDB8C1",
"3X c #F5AEC1",
"4X c #FCADC2",
"5X c #EBB3C1",
"6X c #E4BBC4",
"7X c #E9B8C6",
"8X c #EDBBC5",
"9X c #F4B3C3",
"0X c #FBB3C4",
"qX c #F4BAC6",
"wX c #FBBAC5",
"eX c #F5B6C9",
"rX c #FEB6CA",
"tX c #F4BCCA",
"yX c #FCBCCB",
"uX c #FFBED2",
"iX c #FFB9E9",
"pX c #DFD5C4",
"aX c #EBC5C8",
"sX c #F9C7C1",
"dX c #F4C2CC",
"fX c #FBC2CD",
"gX c #F0CBCF",
"hX c #E7D8C9",
"jX c #FEC4D3",
"kX c #F8C8D4",
"lX c #FCCAD5",
"zX c #FFCDDB",
"xX c #EAD6DA",
"cX c #F6D6DA",
"vX c #FDD2DC",
"bX c #FFCEE0",
"nX c #FFD5E1",
"mX c #F5DCE2",
"MX c #FCDCE4",
"NX c #FEDDE9",
"BX c #EEEFEB",
"VX c #F4E4E4",
"CX c #FBE3E5",
"ZX c #FEE5EA",
"AX c #F7E8E8",
"SX c #F5ECEB",
"DX c #FCEBED",
"FX c #F4F1EE",
"GX c #F9F0EE",
"HX c #F8ECF3",
"JX c #FCEDF1",
"KX c #F4F2F2",
"LX c #FBF0F2",
"PX c #FAF3F9",
/* pixels */
"/ / / / / / / / / / / / / / / / / / / / / / / / / / / @.,.t..XXX%Xw.+./ R / / / ] { ] P W +.e.@X] / / / / / / / / / / / / / / / ",
"/ / / / / / / / / / / / / / / / / ) / / / / / / / ;.x.x.x.1.c.S.S.aXaXXXo./ / / P R R R Q ..@.0.] / / / / ) / / / / / / / / / / ",
"/ / / / / / / / / / / / / / / / / / ) ) / / ) ;.d d D ^.^.1./.sX~.M.~.!.aXXX/ / Q / R ] ` _ ! | / ) / / / ) / / / / / / / / / / ",
"/ / / / / / / / / / / / / / / / / ) ) / / ) i l A D f.^.^.f.P.I.S f.Y.g.).Q.q./ [ / R R ] ` / W / / / / / / / / / / / / / / / / ",
"/ / / / / / / / / / / / / / / / / / / / / i : h M./.b.I.j.B i.M 7 z z S C.m.!.o.` ) R R I R R ) ) / / / / / ) / / / / / / / / / ",
"/ / / / / / / / / / / / / / / / / / / / ;.: j x ~.|.f.i.z 3 8 q 1 q * z l s._.<.) ` ] R R R R R / / / / / / ) / / / / / / / / / ",
"/ / / / / / / / / / / / / / / / / / / _ : 6 A Z.b.f.4 w q q q 9 1 0 < < 6 O h.r.] ] ` ` ` / ) R / / / / / / ) / / / / / / / / / ",
"/ / / / / / / / / / / / / / / / / /  .r 0 < N.^.j.B 3 w 8 8 q 9 0 = = 5 7 4 n M.-.R P P Q / ) / / / / ) / / ) / / / / / / / / / ",
"_ / R T Y ] { Q ) U H U o.+._ U / / r 3 q 7 s.Y.B , < q 8 8 1 0 N p.M k.k.i.s.a.8.^ H P ' ' ' R / / / / / / / ) / / / / / / / / ",
"/ P R / P I [ / | *.-.+.! _ / K / >.: 9 0 6 <Xz.6 q , > 2 0 N N p.M N k.k.B m s.n.^ ^ ^ ` ' / ^ / / / / / / / / / / / / / / / / ",
"R P _ +...W / R  ..X#Xq.! T ] ^ / ;.6 9 5 i.iXj.5 * B G j % q q < < w M w 5 6 + g ^ ( ( / ) / ( / / / / / / / / / / / / / / / / ",
"Y P +.9.*.../ Y $.@X,Xr._ Y ) ../ ;.7 1 3 z.<Xb b ; B.G.V.G : > < 7 * q 0 = 0 4 g ` ) ) ` ` / ( / / / / / / / / / / / / / / / / ",
"Y P +.9.*.../ Y ' q.r.,.I U T X./ ;.6 9 5 z.k.4 - C G.H.*XH.C r c G j % 2 1 0 : 5.} ' / ' ' ` ) ) / P I / / / R / / / / / / / / ",
"` P _ +...W / R Y ` o.o.R U / ..) <.6 0 5 N q ; x G.H.7.=X-XH.6.k B.B.B 2 0 , O 4.} ~ I ~ ' ' ` ) / P P / / / P / / / / / / / / ",
"` P R / P P [ / U U R / / / ) o.,.4.w 8 3 = > c G.F.y u H.-X-X=XH.(.(.^.c $ O Z } ' ^ ^ P ` ` ` ) I P P / / / P / / / / / / / / ",
"_ / ` E Y ] { Q ! ) T T _ ..R :.f F w 8 9 < j B.-Xu   7.=X=X;X+X;XA.1.Z.k X F <.~ / H H H P / ) ) I P P / / / P / / / / / / / / ",
"/ / / / / / / / P P / ) / / / >.a b w 8 8 < c G.*XA.u A.;X;X+X+XH.  1.Z.r h b.7.) ) / / / / / / / / / / ) ) / ] ) ) / / / / / / ",
"/ / / / / / / / P I / / / / / / 5.6 3 8 1 q c G 6.H.-X=X;X=X;X+XF.u 1.b.h $ x 8./ / / / / / / / / / / / / / ) / ) ) / / / / / / ",
"/ / / / / / / / / / / / / / ) / 1., 3 = = = j j k G.-X=X=X=X+X+X;XOX=XG.h @ x <./ / / / / / / / / ) / ) / / / / ) / ) ) / / ) / ",
"/ / / / / / / / / / ) / / / / >.l , , & * = = % C :X-X=XF.*X*X+X=X;X-XV.X ; h 5.o./ / / / / ) / / ) / / / P R / / / / / / / ) ) ",
"/ / / / / / / / / ) ) / ) ) / f : < * # # % # @ h ^.:X-XF.A.7.F.*X-X(.Z X ; : n <./ / / ` / / / / / / / / P R / / / / / / / ) ) ",
"/ / / / / / / / ) ) ) ) / / +.s 6 = # * @ ; @ X X t Z.*X-XF.7.*X(.V.Z X X ; , m 3./ / / ` / ) / / ) / ) / / / / / / / / / / / / ",
"/ / / / / / / / / / / / / / >.v 5 1 % % @ @ - - X . t 6.H.H.H.G.C r X X @ * 6 m 3./ / / / / R P / / / / / / ) / / / / I R / / / ",
"/ / / / / / / / / / / / / / >.v < 2 = # $ X - O - $ . V.H.7.5.i h X X $ * , z n $./ / ) / I P P / / / / / ) / ] / / / P P / / / ",
"/ / / / / / / / T T R R R / $.n 5 9 * ; $ X : & > B C H.&XD.oXn.V c - ; = 5 v n._ / / / / / / / / / / / / / / / / / / / / / / / ",
"/ / / / / / / / ) R R R R / ` f M q 5 ; @ & ; 6 G G t F.D.S.oX/.A h l - < z h.3./ / / / / / / / / ) / / / / / / / / / / / / / / ",
"/ / / / / / / / ) ) R R R / ` <.v 6 q = = * * M B c t F.W.S.S.W.F r S r l s.D./ / / / / / / / / / / ) ) / ) / / / / / / / / / / ",
") ) ) ) ) ) ) ) ) ) / ^ / / / ` 2.v 5 9 9 * @ c c h t n.W.W.&XsXZ.f.^.f.s _.w.R / / / / / / / / / ) ) / / ) / / / / / / / / / / ",
"/ / / / / / / / ~ ~ / / / / ) ` [ 1.4 5 < $ O x x x Z ~.|.:XwXwXY.A ^.fX~.cXw.] / / / / / / / / / / / / / / / / / / / / / / / / ",
"/ / / / / / / / } ' ' ` / / / / / $.f.4 , - X V G.N.f.[.|.wX9XwX|.e f.nXDXCXhX%Xw./ / / / / / / / / / / / / / / / / / / / / / / ",
"/ / / / / / / / #.#.} ` / ^ / ) ) o.7.z 7 ; . G |.6.V [.9XtX8XtX{.A a P.zXZXCXhX%Xq./ / / / / / ) / / / / / / ) / / / / / / / / ",
"/ / / / / / / / %.%.} ~ W ^ / ) >.2.F b < @ X N.|.V e Y.uXtX8X8XyXL.o s m.E.!.mXMXhXw./ / / / / / / / / / / / / / / / / / / / / ",
") / / R R / / ) / / / / / / / / @.a z 7 = O r yXfXd e R.yX8X8XtXtX4Xh.o a p E.DXMX6XaXt.) P / ] X.O.T Y L ] =.U / / / / / / / / ",
") / / / / / / ) / / / / / / / / [ s 7 < - o C.NX[.e d.0XwXfXtX|.tX0X4Xl.+ s lXZX7XQ.eX}.w./ / / T ) K [ +.| / U / / / / / / / / ",
"/ / / / / / / / / / / / / / / / _ d - , O A vXvXf.o L.yXwXwX9XyXrX0XrX4XU.T.tXQ.'.].4XyX$X[ / I U Y I 9.e.@.W Y / / / / / / / / ",
"/ / / / / / / / / / / / / / / / / 3.o a a rXMXM.e s.4X_.U.0XwXyX0XyXyXtXfXtXfXtX{.4X].zX1XXXI / Q O.Q -.y.@.W ] / / / / / / / / ",
"/ / ) / / / / / / / / / / / / / / @.M.g ).vXvXv.d [.[.v.d.U.qXqXwXyXqXdXkXvXjX{.4X0X'.jX7X2X0./ 3.e.o.R =.[ P W / / / / / / / / ",
"/ ) ) / / / / / / / / / / / / / / _ hXnXnXZXvX8X_.uXL.g p d.9XdXfXtXtXtX7X5X9X9XrXrX).jXzXQ.%X{ pX,X-.K U K / Q / / / / / / / / ",
"/ ) / / / / / / / / / / / / / / /  XvXvXkXdXkX8XjXjXY.n a h.yXqXdX8XqXtXjXqX5XjXtXqXQ.jXzX6X2XXX>X@X9./ K P { ` / / / / / / / / ",
"/ ) / / / / / / / / / / / / / / / %XQ.`.'.'.5XkXlXyX4XP.C.T.0XyXtXdXfXqXyXyXtXtXdX'.).uXjXuX5X&Xt.$...| J ! O.L / / / / / / / / ",
"( ^ Y Y Y Y / ( / R P P / / / / @.2XeXT.3XyXjXlXdXtX0XT.3XT.{.9XqXtXtXyXqXtXdXkXjX_.L.h.C.R.].qX$X/ / / / / / / / / / / / / / / ",
") P ..@.@...P ) ) / P P / / / / XX6XjX{.4XrXqXdXdXdX5X).jX'.).3XqXwXrXyXfXdXtXtX9X4XY.l.j.s.f.jX8X X/ / / ) / / / / / / / / / / ",
"Y P ,.#X#X,.P Y / / / / / / / ,.6XqXzX9X].yXdXdXfX9X`.'.zXfX'.].T.].0XrXyXtXrXrX_.T.L.l.k.m s.rXqX$X/ ) / / ) ) / / / / / / / / ",
"Y I 0.#X#X0.I Y / / ) / / / / XX`.jXnXjX{.rXtX8XqX9XT.5XZXnX5X9X[.R.U.U.).).U.U.U.U.T.R.z.j.h.rXjX8Xw.) / / / / / / / / / / / / ",
"{ / +.-.-.+./ { ) / / / / / o.6X5XzXlXzX{.].qXdXtXQ.).lXMXZXcX7XrX0X4X{._._.R.R.T.{.{.].R.l.C.4XyXqXoX) / / / / / / / / / / / / ",
"_ / R Y Y R / _ / / / / / /  X2X}.nXjXrXY.R.0X{.).Q.}.vXJXJXNXcX5XqXqXyX0X0X0XrXyXrXqX9X[.T.L.h.U.U.W.[ / / ) ) / / / / / / / / ",
"^ / ) ] ] ) / ^ { / / / / / $X}.tXyXl.l 4 j.R.R.T.`.kXCXSXLXPXMXMXgX6X}.qXyXrX0XrX9XfXfX'.'.].m.h.g.J./ ) ) / / / / / / / / / / ",
"&./ ! ....! / &.{ / R / / t.7X`.3XL.m - l z.Y.R.].fXMXAXSXSXJXDXAXVXcXgXdX7X}.`.Q.}.qXyXdXqX3X[.m.m.$X_ ) / / / / / / / / / / / ",
"/ / / / / / / / R / / / / W.qXK.L.C.n x l.Y.4XrXnXnXMXDXKXKXKXKXBXSXDXZXZXZXCXCXgX!.`.wXtXtXyXyX].5XXX/ / / / / P P P P / / / / ",
"/ / / / / / / / / / / / o.aX9Xm.P.R.I.Y.[.rXvXMXMXCXAXDXLXKXKXKXFXFXDXDXHXGXFXSXCXgXqX`.`.8XjXqXuX'.XX/ / / / / R P P R / / / / ",
"/ / / / / / / / / / / / 8.5X'.U.Y.R.R.].qXkXCXDXAXAXDXJXJXHXHXLXFXGXDXJXHXHXLXLXDXZXMXlX5XQ.Q.`.T.K.E./ / ) ) ) / / / / ) / / / ",
"/ / ) ) / / / / / / / / &X8X).K.Y._.].tXvXCXDXVXVXSXDXJXJXJXHXHXSXDXHXHXHXHXHXLXDXmXcXZXJXnXkXlXT.J.oX/ / ) ) ) / ) ) ) / / ) ) ",
"/ / / / / / / / P P P / !.}.'.{.8XaXcXCXZXDXDXVXVXSXDXHXJXDXJXHXGXFXLXHXHXHXPXPXJXJXAXVXMXZXDXDXnXgX.X/ / / / / / / / / ) ) ) ) ",
"R / / / / / / / P P P / E.Q.jXNXCXCXCXCXCXVXVXVXVXSXHXLXLXHXJXJXGXFXKXKXKXHXKXLXJXJXSXcXMXZXLXDXJXcXr./ / ) / / / / / / ) / ) ) ",
"P P P R / / / ) / / / / !.gXnXMXZXCXZXZXZXZXCXVXSXFXKXKXKXLXLXJXGXGXBXBXFXKXSXDXZXZXDXCXcXmXSXDXZXgX X/ / / / / / / / / / / ) / ",
"P P P P R / / ) ) ) ) /  XcXNXvXCXZXZXZXCXCXMXCXDXGXKXFXSXKXHXHXLXLXKXBXGXGXDXZXCXgX}.!.6XcXZXmX6XE.r./ / / / / I / / / / / ) / ",
"P P I / / / / / / / / / ,.xXcXMXMXCXZXZXCXVXCXDXDXDXSXFXKXFXKXKXHXPXVXLXZXCXlX:X!.}.M.M.`.zXbX1XJ.W.R R I W _ +.P K Y E ` / ! Q ",
"/ ) / / / / ) / / / / / / w.xXxXMXMXMXCXZXZXAXVXDXDXDXLXLXLXHXDXJXJXJXvX|.b.Z.^.:X|.D m.fXgX7X!. X/ R R / ! _ +.q.+./ T ] Q I ] ",
"/ / / / / I P P / / / / / / +.xXxXmXMXMXMXCXZXJXZXDXDXDXZXDXJXJXNXuX5X).g o r B.^.N.h x $X X,.` / / R ) ) / _ +.@X0.| _ [ Q P E ",
"/ / / P I I P P / / / / / / / / 0.xXxXxXcXmXmXmXCXAXZXZXNXzX9XU.a.u.D.8.<.5.r X h h : x 8.R R R / / R ) ) / _ o.e.@.! _ O._ R Y ",
"/ ) / / / / ) / / / / / / / / / / / 0.r.XX%XpXhXhXhX!.J.u.s a + p 1.@./ / / ;.o > = z m 8.] ` / / / P / ) / _ _ o.[ T R / [ ` P ",
"/ / P P ) / / / / / / / / / / / / / / / / / / / / ) +.3.u.d a s 2.+./ / R R / ;.O , i.A <./ ! ! _ ^ P / ) / / _ K E E K P [ { R ",
"/ P P P / ) / P / / / / / / / / / / / / / / / / / / / / / / / [ ) / / / / / / [ 2.d p n.+._ +.@._ / W ) ) / / / R R Y R Q _ / T ",
"{ / P P ) / / / / / / / / / / / / / / / / / / / / / R R R R / / ] ) R ) ] R ) ] _ <.w.0.P +.q.y.o./ / ) ] / / / ..W P [ O._ P Y "
};
