/* XPM */
static char *walls1714660540[] = {
/* columns rows colors chars-per-pixel */
"64 64 187 2 ",
"   c #2F0000",
".  c #340200",
"X  c #3B0600",
"o  c #3D0B00",
"O  c #3F1000",
"+  c #430D00",
"@  c #451200",
"#  c #4B1500",
"$  c #4D1B01",
"%  c #4F1F09",
"&  c #501700",
"*  c #531D02",
"=  c #5C1F05",
"-  c #541C08",
";  c #591E0B",
":  c #591D12",
">  c #4F2103",
",  c #542203",
"<  c #5A2305",
"1  c #552807",
"2  c #5C2A05",
"3  c #55230B",
"4  c #5B250B",
"5  c #57280A",
"6  c #5D2A0C",
"7  c #5E300F",
"8  c #572711",
"9  c #5C2510",
"0  c #572912",
"q  c #5E2A12",
"w  c #5F2F19",
"e  c #5F3013",
"r  c #63250C",
"t  c #622B0D",
"y  c #63310E",
"u  c #622612",
"i  c #632C13",
"p  c #652E19",
"a  c #653214",
"s  c #6A3315",
"d  c #6B3915",
"f  c #65331A",
"g  c #6B351B",
"h  c #6D3A1C",
"j  c #733C1D",
"k  c #673720",
"l  c #6D3521",
"z  c #6D3A22",
"x  c #6E3F2A",
"c  c #743D23",
"v  c #7A3F21",
"b  c #783E2A",
"n  c #76421D",
"m  c #754223",
"M  c #7A4425",
"N  c #7D4A26",
"B  c #74432B",
"V  c #7B452B",
"C  c #7E492B",
"Z  c #794730",
"A  c #7D4B34",
"S  c #7E4E39",
"D  c #804527",
"F  c #804729",
"G  c #824B2D",
"H  c #894D2E",
"J  c #83512E",
"K  c #89512D",
"L  c #814731",
"P  c #844D33",
"I  c #884F33",
"U  c #874F38",
"Y  c #884F3B",
"T  c #865233",
"R  c #8A5335",
"E  c #865836",
"W  c #8E5937",
"Q  c #85533B",
"!  c #8C553A",
"~  c #87583A",
"^  c #8E5A3B",
"/  c #915536",
"(  c #915A36",
")  c #91563A",
"_  c #935B3D",
"`  c #995E3D",
"'  c #936237",
"]  c #94623D",
"[  c #9A633E",
"{  c #8E5740",
"}  c #875942",
"|  c #8D5A42",
" . c #8E5F48",
".. c #915741",
"X. c #945D42",
"o. c #995F42",
"O. c #925E48",
"+. c #985E48",
"@. c #8F614A",
"#. c #966243",
"$. c #9B6445",
"%. c #966846",
"&. c #9D6A45",
"*. c #95634A",
"=. c #9C654A",
"-. c #976948",
";. c #9D6B4B",
":. c #9E714E",
">. c #976751",
",. c #9A6650",
"<. c #966851",
"1. c #9D6B52",
"2. c #9F7150",
"3. c #A16545",
"4. c #A16B46",
"5. c #A0674C",
"6. c #A36C4C",
"7. c #A96E4E",
"8. c #A17047",
"9. c #A5714D",
"0. c #A9744D",
"q. c #A9784F",
"w. c #A36D52",
"e. c #A96E53",
"r. c #A26E58",
"t. c #A57253",
"y. c #AA7554",
"u. c #A77956",
"i. c #AC7954",
"p. c #A6745A",
"a. c #AB755A",
"s. c #AD7A5B",
"d. c #B17557",
"f. c #B17C56",
"g. c #B1765A",
"h. c #B27C5C",
"j. c #B87B5E",
"k. c #A96E60",
"l. c #AC7460",
"z. c #AE7B61",
"x. c #B07563",
"c. c #B37D62",
"v. c #B87E61",
"b. c #B67F6A",
"n. c #AE815D",
"m. c #B3825D",
"M. c #B8835F",
"N. c #AF8062",
"B. c #B48263",
"V. c #BA8465",
"C. c #B68867",
"Z. c #BC8965",
"A. c #B68469",
"S. c #BB866A",
"D. c #BC8A6B",
"F. c #BE8D72",
"G. c #C0876A",
"H. c #C18B6D",
"J. c #C3926D",
"K. c #C8946F",
"L. c #C28E72",
"P. c #C88F71",
"I. c #C49274",
"U. c #C99575",
"Y. c #C79975",
"T. c #CC9B77",
"R. c #C6957B",
"E. c #CB9579",
"W. c #C7987C",
"Q. c #CC9A7C",
"!. c #D19C7C",
"~. c #CD9C82",
"^. c #CF9F88",
"/. c #D29E83",
"(. c #D5A385",
"). c #DAA586",
"_. c #D9A887",
"`. c #D5A38B",
"'. c #DAA68A",
"]. c #D7A88C",
"[. c #DCAA8D",
"{. c #D6A690",
"}. c #DBAC92",
"|. c #DFB096",
" X c #E0AF91",
".X c #E1B296",
"XX c #E3B399",
/* pixels */
"0.0.0.0.y.4.=.a.v g *.p.a.^ o 9.V.i.4.3.7.8.i.M.Z.M.m.i.u.i.9.&.0.6.7.< 6.o.I I ....o.o.o.3.3.3.e.c.C.p.m., #.Y.n.n.i.9.q.n.n.m.",
"0.0.q.f.y.;.6.B.V C z.;.t.V.m D.Z.i.q.f.h.f.f.m.f.f.i.9.i.m.i.i.3.f.a.s a.o.+...5.w.e.e.d.g.j.j.5.e.u.:.B.i :.T.m.n.m.m.m.m.m.m.",
"q.f.M.q.t.&.w.S.U V z.#.&.s.5 s.y.7.6.0.a.0.t.y.h.y.9.;.u.i.i.;.T a.6.t +.! e.w.e.w.6.w.5.5.5.3.w.&.;.=.B.d 6.H.&.6.6.q.0.0.n.8.",
"0.f.f.0.6.#.=.s.P h p.1.p.N.5 p.s.y.e.y.d.f.j.Z.m.m.s.i.s.s.9.#.6.B.6.s o.+.5.{ +.=.5.w.e.e.e.e.e.6.$.&.d.s o.e.9.q.t.y.f.f.m.m.",
"0.0.t.t.t.&.;.s.m k p.*.1.A.0 #.#.X._ _ [ =.6.t.a.i.s.s.s.u.w.-.$.%.#.5 | 1.*.! c.c.c.b.c.h.d.c.g.a.e.e.x.s ) 3.o.o.o.o.[ 3.6.7.",
"4.4.&.&.t.1.1.p.A k *.=.t.p.5  .W ) _ X.$.=.=.6.#.&.=.%.%.$.#.#.X.@.;., c ! =.A.c.l.l.a.e.5.5.6.e.d.e.e.e.r I / ) ) o.o.3.[ 3.o.",
"y.t.6.:.t.t.p.s.Z 4 B *.2.<.g 1.$.=.5.6.6.e.p.t.a.a.a.t.t.p.w.6.-.p.t.q f k | x.,.*.,.w.w.,.r.h.e.e.a.d.e.s X.+.3.5.5.w.e.7.w.5.",
"d s 6 6 6 q q f $ @ % 3 w h X , i i u i i s g g g g g g h h a 5 e a > X 3 - w 8 9 3 3 3 * # # , - ; 4 i r . i s p s s s s g g j ",
"~ $ $ Q -.#.T T Q Q A V c g f c O.U F ) ! U + + $ 4 3 , 7 q 6 q a h n f w e f , X B N.I.s.1.C ^ E &.T f Q p.;.~ o.+.*.X z t.~ #.",
"/.B , s.p.1.-.w.p.s.s.a.p.r.1.p.=.=.w.5.=.a.t r p.a.h.S.I.I.D.F.n.B.N.C.N.z.p. .$ k D.A.s.B.s.B.N.D.p.;.B.D.N.N.z.A.Q.h C.Q.A.A.",
"].z + z.%.^ ^ #.! _ X.*.=.+.{ X.C F ! I ) a.s ! S.a.p.B.c.t.;.;.u.2.:.2.p.t.p.#.* f L.*.#.=.6.&.t.:.%.:.s.:.-.u.-.t.F.e C.F.p.t.",
"L.q 6 D.%.#.X.] ^ _ _ $.=.o.Y ! ) C T I ! $.* =.S.6.;.p.t.t.s.a.2.:.-.2.t.2.s.;.@ P W.t.e.6.i.a.n.s.u.u.t.E N W t.2.C.5 p.F.s.s.",
"=.# T p.T W R K ) _ ) ) $.! G G g t M I W $.* &.P.h.s.s.t.w.t.:.:.u.t.s.u.6.t.;.X 6.h.#.5.6.7.9.u.y.t.9.#.N m C 6.&.t.6 %.I.a.s.",
"w.* s.=.G ( $._ ` ` ) ` o.) L H I I _ R I $., T 6.w.a.c.B.V.D.D.n.m.m.m.t.t.h.t.t Q.6.` 9.0.8.4.8.0.i.t.4.$.] #.#.=.t.c E (.B.h.",
"c.i a.o.I / $.[ ` ` ` ` 3.) I / F C C M c ! t N B.v.n.m.m.t.;.t.i.i.i.9.9.y.a.] < H.6.&.6.h.i.y.y.0.0.0.3.` [ $.&.[ d.c h P.h.a.",
"F.f 5.5.&.#.6.$.$.3.5.5.e.3...o.o.! T $.! W q V D.B.s.s.t.^ P %.%.t.9.u.s.s.#.a * h.V.s.t.j.y.0.y.7.6.6.6.6.e.e.h.d.G.v t G.H.v.",
"x 3 w x f 0 w 3 3 > 0 3 $ 8 0 0 f 8 > 0 0 8 @ O $ % % # @ o o o O O @ @ # @ @ X @ 9 c c g 9 4 4 4 $ @ $ # 3 3 3 f p i p f l g l ",
"1.O.<.1.2.@.8 S <.} }  . .@.Q S O @ B A S S S S B Z Z A Q }  .*.@.@.w @  .p.l.p.r.l.l.5.^ ! X.X.O.=.@.*.f @ S } Q Q ! | *.=.1.w.",
"`.^.].~.XX].k W.|.W.Q.^.W.W.~.{.w S |.|.|.}.`.`.W.I.L.D.D.D.D.D.F.|.F.A XX}.D.Y.~./.(.Q.L.S.G.H.A.F.A./.1.a ~.(.B.B.j.h.h.h.z.h.",
"B.C.C.N.Y.W.> F.C.:.2.u.;.-.s.Q.e B /.N.s.z.C.F.V.c.s.t.w.9.w.t.-.R.p.e T.z.#.t.%.6.f.j.B.f.f.y.s.p.t.W.#., Y.i.a.a.u.a.i.a.s.i.",
"9.n.i.9.u.M., :.U.9.9.m.C.Z.Z.!.m A T.6.2.n.m.B.t.0.7.&.&.4.0.i.-.u.' $ H.B.9.9.-.&.i.f.m.f.f.f.m.s.K.!.W , G.[ 3.4.4.4.4.4.0.0.",
"&.i.u.y.:.i., J K.q.9.9.9.i.i.Z.2 N Z.9.s.h.9.&.8.7.4.4.[ [ 4.0.s.9.' $ B.Z.:.[ 4.9.q.i.i.i.q.q.9.-.M.Z.n 2 J.4.0.0.0.7.4.4.[ [ ",
"i.i.h.f.i.m., W U.f.i.4.] &.0.h.2 R f.=.6.y.4.q.4.4.4.4.4.7.q.f.u.i.#.@ 9.Z.f.m.7.8.0.i.q.8.7.8.q.6.6.h.d r M.[ [ 4.4.4.4.7.7.0.",
"m.y.f.8.y.y.@ W H.f.t.&.4.i.6.$.@ W s.6.7.6.[ t.4.3.3.4.7.q.d.d.6.n.%.@ t.J.y.9.i.i.9.0.4.&.4.q.7.6.#.B.d < H.4.4.4.7.7.7.3.4.4.",
"a.a.=.y.e.M < ( j.$.5.;.5.f.a.a.4 P V.t.6.a.G.5.5.3.7.e.d.d.d.e.a.a.c * a.c._ a.5.a.B.6.f.6.y.s.a.p.a.c.I & B.w.d.7.d.a.5.5.3.7.",
"6.6.6.$.X.T 4 G a._ T 6.e.t.h.S.h I c.c.x.a.c.d.a.a.a.d.g.j.j.h.w.X.j - a.S.&.$.c.v.S.a.c.h.j.t.g.w.a.b.! = a.v.7.5.c.v.d.g.e.e.",
"^ ^ $.) T P & i ^ X.V G X.X.r.;.u g Y T ..! ^ +.! U I U ) ) ) _ ..I l # V ......^ =.c.p.a.p.a.p.,.w.A.z.! 3 | w.5.o.5.=.) ..) H ",
"b g q g g h 4 h i h & # 4 4 6 3 - 9 g 4 4 * X + & # # = < 4 4 < & ; p - @ 9 i 9 # @ 4 a 4 * 3 * @ $ - # 4 - q 3 4 * u 9 # s g g ",
"a.#.$ 6 m ^ I.[.S.w.&.w.z.&.T 1.*.;.s.1.r.=.g m I G T _ X.#._ #.5.+.....b e.w.5.X.t t ^ ^ ! ^ P B A Z q f q a q h c T T s W X.! ",
"C =.a ^ s.B.U.B.I.a.z.h.A.z.#.t.w.=.;.-.a.$.y W T G C R W ( _ [ ) ) Y +.L e.U b X.t M H.S.m.z.s.A.I.I.F.z.^ ^ &.1.t.a.$.i ) o.W ",
"T %.t J u.s.s.-.&.w.t.&.&.u.9.^ s.;.%.^ =._ , E G N N K ! W W ( / ) I H v F h j G t _ ).D.t.u.t.p.s.1.F.[.(.W.D.s.u.t.^ , E #.R ",
"T E 1 J B.h.9.s.t.u.:.u.s.u.B.] E #.#.W ;.:.6 C K G G _ _ ( R ! ) ) $.I o.I v M M < G T.u.t.s.u.2.B.2.u.s.u.n.t.t.s.s.$.6 _ #.N ",
",.=.6 I s.c.t.a.u.D.s.n.B.u.u.s.] #.6.y.6.a.h j M P I #.) =.*.=.e.w.=.X.o.X...) X., R Q.p.6.t.s.u.n.u.n.n.N.s.s.s.p.b.;.g F ! +.",
"..*.g P 1.=.%.w.t.n.t.t.u.s.n.N.&.q.#.=.$.&.2 m *.X.T C ^ =.*.! ....o.5.5.=.X.W ! t #./.c.t.1.t.2.:.:.2.u.u.u.n.t.V.a.=.4 j e...",
"+.&.V +.h.s.a.h.V.B.n.i.B.B.n.B.D.I.i.a.s.t.s R ;.M C V +.^ W ../ ) ) / R I G I ] V $.B.t.6.&.2.n.2.u.2.2.:.:.t.1.w.X.X.s ! L.o.",
"t s * s G C M C T h E J E A N m F T M n M M & y g & t & 4 i i c j s u r = * = < < * & , $ $ , , 1 > 1 > > $ , @ , $ , , @ s b j ",
"s F M M N d j C a & N M C M m n M N N G G ^ R T ^ X.X.* # ! L G F F D G F G N M F G M m N M M m O > h 5 f m P a 4 T T F M G G ` ",
"j.V.G.h.M.d.d.h.#.h a.t.5.t.t.a.M.B.V.D.v.Q._.Q.P.E.E.T F /.B.a.f.j.j.V.H.H.V.j.d.V.Z.j.V.i.h.h.m ~ z.*.2.N.L.*.N '.f.a.h.e.v.h.",
"f.q.f.4.y.0.y.9.7.s a.&.=.5.w.e.a.d.a.t.6.a.j.s.a.;.c.C T E.e.t.e.6.9.t.y.f.i.a.6.y.a.6.t.W t.m.B E N.;.2.p.B.Q M !.6.6.a.9.v.0.",
"0.0.j.3.7.4.d.i.6.r t.=.$.w.&.5.a.B.s.f.Z.y.p.h.h.6.L.c G S.t.t.6.t.d.f.f.f.y.y.&.q.h.f.t.K e.B.m Z p.-.2.p.B.! M v.f.a.0.7.t.h.",
"7.4.i.y.t.a.6.a.6.= 7.6.e.e.5.5.t.a.a.a.d.r.t.a.B.T.H.F j y.a.#.t.=.9.&.y.0.y.a.y.6.y.7.4.7.6.f.c c p.a.g.r.A.W h a.o.5.#.6.4.6.",
"y.4.&.&.7.4.=.0.5.& ) _ &.5.5.r.5.$.X.X.w.;.f.M.E.s.V.c G R T ] ( ( =.$.6.$.4.( &.&.9.7.=.3.#.9.l h p.1.*.^ w.F d _ ! &.( $.&._ ",
"3.6.;.t.e.&.=.4.a.< ! ) +.X._ 5.5.*.5.p.S.b.L.G.D.v.Q.M J &.^ 6.] 6.6.6.t.0.i.7.6.3.t.t.7.6.6.d.c a Q W o.w.v.X.m $.W $._ $.t.7.",
"^ X.^ #.P C I C g X i c P U ) =.#.P C M C c c C T ( ^ < a #.M j j j d h m j F ! ( G G D F G P ) t , j M L P ! t t W P ) ( I T T ",
"* . . 3 * $ 4 3 g * i & & @ + + X . + + # # . * t a 2 < * * & s d t , < a * + h I g r < < r < t 4 < t < & * s t i c s s + # j i ",
"A.0 B F.F.z.z.z.=.1.=.^ ! ) ..) ! ) p.x.a.h.g =.I.j.Z.V.Z._ Z.!.D.B.s.c.H.;.5 =.E.h.a.e.a.f.e.d.V.d.a.6.o.6.H.I.G.e.e.b.r X.'.v.",
"{.w  .^.z.1.| } ! +.} ! X.X.=.=.*.X.=.*.$.L.p U.!.t.a.7.H.Z.U.y.B.s.z.s.U.p.+ _ a.o.X._ $.$...5.&.` &.5.=.&._ G ..^ +.G.g e./.w.",
"`.w 1.I.}  .*.=.5.p.=.5.a.&.$.*.=.W ( I T D.# H.B.6.V.V.6.Z.f.4.t.w.t.#.H.h.X $.a.` ) ) ! / / o._ [ =.3./ T I G P 5.G =.g a.S.p.",
"b.* X.a.9.$.4.&.6.7.4._ X.$.) _ D d D ( _ 9.t e.G.j.6.0.q.0.0.` 9.6.#.6.U.s < G.o./ ) o.` ) / 3.` [ ` ( R / j @ j 5.T ;.a R Q.p.",
"( & 3.y.$.( [ ( ( ( =.e.6.$...R _ K K K R 6.t _ !.j.f.j.q.[ 4.f.$.$.y.6.7.s j g./ H ` o.H H / ` ` 3.3.7.` R ( / F _ X.5.r h U.a.",
"=.< $.e.W I ] _ $.X._ _ U L { ! _ ( W I R 6.s C E.c.a.=.=.7.&.i.a.t.a.5.a.G ) c.) _ 5.e.) ) e.o.o.&.` ` _ C ^ ! &.I ^ =.f f L.w.",
"L.a ! e.$.W X._ I ^ I ! { Y ..X.I T ^ ~ X.e.s l E.D.v.a.a.s.6.w.c.s.w.5.L.) U S.o.=.5.e.3.e.x.) =.d.e.3.=.+.&.! ..+.p.p.g 9 c.A.",
"O.# 4 C P B m k 4 a - 3 l k 9 p m M V B G A q e b Z P =.=.C B X.P P Z P  .p 4 *.Y I L ! Y P Y V b ! ! L T ! Q ! P O.O.} 0 $ x A ",
"l - 5 e h V C N m 0 3 p x V k l 6 6 , , 3 3 * 5 3 u 0 $ 0 g a B f 3 p k i 3 i i 9 9 ; - ; + X g l < & 3 i z $ g g z p l Z ! Q Q ",
"A.F.A.s.D.W.~. XB.k 1./.~.^.F.A.F.F.B.B.Z.A.F.I.R.~.F.h P ~.s.t.B.w.p.B.l.A.D.1.c.b.b.p.S.O.l (.(.s.=.p.c.W.B | }.~.`.~.~.W.R.~.",
"s.V.p.p.D.B.t.F._.5 ;.(.p.z.l.p.s.C.N.B.B.B.C.q.w.t.R.q m ].1.s.z.S.A.D.L.F.D.I.A.A.A.z./.#.4 '.L.h.B.B.B.(.h C }.B.W.D.I.c.D.z.",
":.8.8.8.u.i.u.t.m.a m (.%.:.t.%.i.n.n.n.i.q.:.q.n.Z.J.d m T.E s.t.a.i.i.i.t.u.u.t.6.A.s.p.;.$ D.C.q.q.n.C._.n N U.u.u.q.:.8.&.9.",
"q.8.] ' ] 9.i.i.n.y d T.q.u.:.&.8.q.q.q.q.q.n.n.m.J.D.7 m D.^ _ y.q.f.q.i.y.a.i.B.i.m.-.&.$.@ u.Z.C.m.Z.M.Y.d K Z.9.8.8.:.8.&.9.",
"' ' ' ' 8.n.i.i.i.2 2 J.m.m.8.0.0.q.q.8.&.q.q.q.[ n.i.2 E C.#.A ] [ 4.0.q.y.i.i.y.9.-.G X.] o %.F.m.q.q.n.M.2 D i.[ [ 8.4.8.[ 8.",
"q.q.0.q.q.n.i.6.h.2 y K.m.m.q.m.q.q.&.[ &.&.[ [ q.8.&., C V.=.) ( [ &.8.7.4.&.[ ( #._ T ;.#.@ ;.Z.n.:.:.8.q., N m.[ 8.q.8.8.4.8.",
"q.f.0.0.t.a.y.a.7.= g P.4.&.q.0.j.q.7.0.f.q.q.f.q.0.9.r v L.Y I / / ` ` [ ` _ ( U _ ) W 5.I # w.n.9.9.9.t.6.< N Z.4.7.4.8.4.4.4.",
"q.f.m.m.f.g.j.i.T * j G.4.&.q.7.B.d.0.a.d.d.0.d.8.h.B.s l /.w.+.` ` / / _ _ ) _ +.+.X.X.*.l # ,.B.:.&.u.H.S.d j Z.7.0.d.0.0.0.d.",
"0.d.f.d.e.e.3.O.L s c 5.5.5.5.7.S.H.V.j.j.j.h.e.d.c.a.4 u k.k.x.V.j.d.e.7.5.5.o.....{ Y { p - ..l.^ ! *.s.S.F s d.$.3.7.7.7.4.7.",
"j j j d b F L L b l - s b v h F v I U M j G G s v D L - = : : ; = = = r u i u u p p u 9 l - @ l l 9 h z g V r u G s v D D D j D "
};
